<?xml version="1.0" encoding="utf-8"?>
<!-- Generator: Adobe Illustrator 23.0.0, SVG Export Plug-In . SVG Version: 6.00 Build 0)  -->
<svg version="1.1" id="Calque_1" xmlns="http://www.w3.org/2000/svg" xmlns:xlink="http://www.w3.org/1999/xlink" x="0px" y="0px"
	 viewBox="0 0 220.82 336.5" style="enable-background:new 0 0 220.82 336.5;" xml:space="preserve">
<style type="text/css">
	.st0{fill:#12491D;stroke:#000000;stroke-width:1.2316;stroke-miterlimit:10;}
	.st1{fill:#F2F2F2;stroke:#000000;stroke-width:1.2316;stroke-miterlimit:10;}
	.st2{fill:#FEA621;stroke:#000000;stroke-width:1.2316;stroke-miterlimit:10;}
	.st3{fill:none;stroke:#000000;stroke-width:1.2316;stroke-miterlimit:10;}
	.st4{fill:#12491D;stroke:#000000;stroke-width:0.8723;stroke-miterlimit:10;}
	.st5{fill:#F2F2F2;stroke:#000000;stroke-width:0.8723;stroke-miterlimit:10;}
	.st6{fill:#FEA621;stroke:#000000;stroke-width:0.8723;stroke-miterlimit:10;}
	.st7{fill:none;stroke:#000000;stroke-width:0.8723;stroke-miterlimit:10;}
	.st8{fill:#12491D;stroke:#000000;stroke-width:1.5727;stroke-miterlimit:10;}
	.st9{fill:#F2F2F2;stroke:#000000;stroke-width:1.5727;stroke-miterlimit:10;}
	.st10{fill:#FEA621;stroke:#000000;stroke-width:1.5727;stroke-miterlimit:10;}
	.st11{fill:none;stroke:#000000;stroke-width:1.5727;stroke-miterlimit:10;}
	.st12{fill:#12491D;stroke:#000000;stroke-width:1.9697;stroke-miterlimit:10;}
	.st13{fill:#F2F2F2;stroke:#000000;stroke-width:1.9697;stroke-miterlimit:10;}
	.st14{fill:#FEA621;stroke:#000000;stroke-width:1.9697;stroke-miterlimit:10;}
	.st15{fill:none;stroke:#000000;stroke-width:1.9697;stroke-miterlimit:10;}
</style>
<g>
	<path class="st0" d="M67.32,184.63c3.59,2.58,6.58,5.92,9.46,9.26c2.79,3.43,5.47,6.96,7.89,10.67c1.22,1.84,2.46,3.68,3.55,5.61
		c1.13,1.9,2.28,3.8,3.31,5.75c2.14,3.87,4.03,7.88,5.9,11.89c3.61,8.08,6.54,16.46,8.86,24.98l1.62,6.42
		c0.47,2.16,0.86,4.33,1.28,6.49l0.59,3.25l0.43,3.28c0.28,2.19,0.52,4.37,0.74,6.56c-0.61-2.12-1.19-4.24-1.75-6.36l-0.82-3.18
		l-0.96-3.14c-0.63-2.09-1.2-4.2-1.85-6.28l-2.04-6.22c-0.64-2.08-1.46-4.1-2.17-6.16c-0.74-2.05-1.44-4.11-2.29-6.11
		c-0.82-2.01-1.57-4.06-2.4-6.06l-2.61-5.98c-1.78-3.97-3.62-7.9-5.62-11.76c-0.94-1.96-1.99-3.87-3.02-5.78
		c-1.02-1.92-2.11-3.8-3.18-5.7c-2.17-3.77-4.47-7.47-6.89-11.1C72.88,191.37,70.36,187.81,67.32,184.63z"/>
	<path class="st1" d="M55.57,127.34c0.84-3.42,5.8-12.2,9.22-2.29c3.43,9.9-1.76,12.58-1.76,12.58l-9.87-1.37L55.57,127.34z"/>
	<path class="st1" d="M39.48,139.27c-0.21-3.31,2.4-10.24,7.17-5.41c4.77,4.84,0.02,11.72,0.02,11.72l-5.06-0.01L39.48,139.27z"/>
	<path class="st1" d="M33.27,148.71c-3,0.58-5.14,0.53-4.53,6.47c0.62,5.93,7.42-1.7,7.42-1.7L33.27,148.71z"/>
	<path class="st1" d="M27.56,164.36c-8.38-1.13-11.21,3.7-5.4,8.29c5.81,4.59,7.85-6.55,7.85-6.55L27.56,164.36z"/>
	<path class="st1" d="M18.31,179.18c-3.7,1.58-19.03,13.04-3.49,15.15c15.54,2.12,12.88-10.67,12.88-10.67L18.31,179.18z"/>
	<path class="st1" d="M15.25,207.49c-13.01,8.15-10.5,23.34,4.9,11.22l12.36-20.87l-6.76-2.23L15.25,207.49z"/>
	<path class="st1" d="M26.7,227.88c-3.94,24.93,13.21,19.42,14.93,6.44c1.31-9.89-0.38-22.88-0.38-22.88L26.7,227.88z"/>
	<path class="st1" d="M55.55,220.89c8.05,21.02,17.61,4.03,12.79-7.72c-3.32-8.09-17.44-35.77-17.44-35.77l-4.72,4.62L55.55,220.89z
		"/>
	<path class="st1" d="M82.37,203.18c10.33,8.39,20.58-8.4,8.82-15.17c-7.39-4.26-35.01-16.35-35.01-16.35l-1.75,4.98L82.37,203.18z"
		/>
	<path class="st1" d="M85.35,107.46c2.8-1.22,12.75-5.59,10.21,8.53c-2.53,14.12-15.32,19.31-15.36,18.92
		c-0.04-0.4-6.2-7.08-6.2-7.08L85.35,107.46z"/>
	<path class="st1" d="M91.83,133.97c13.86-7.7,20.93-3.77,9.55,9.8c-11.38,13.58-23.93,8.22-23.93,8.22s-0.96-9.23-0.59-9.53
		C77.23,142.15,91.83,133.97,91.83,133.97z"/>
	<path class="st1" d="M97.81,152.97c12.25-0.87,14.04,7.22,2.17,15.64c-11.7-0.41-38.94-4.23-38.94-4.23l0.54-5.21L97.81,152.97z"/>
	<path class="st1" d="M65.38,163.54c22.22-1.44,34.02,0.06,41.32,4.61c8.36,5.21,6.4,21.93-12.22,20.39
		c-18.62-1.54-34.1-12.53-36.07-14.72C56.45,171.63,65.38,163.54,65.38,163.54z"/>
	<path class="st1" d="M57.23,177.14c2.84,1.63,24.21,10.83,26.7,31.35c1.03,8.5-8.35,13.92-17.93,7.35
		c-10.01-6.86-14.34-32.34-13.79-34.18S57.23,177.14,57.23,177.14z"/>
	<path class="st1" d="M43.14,191.51c-0.74,2.9-5.95,29.74-12.7,39.15c-7.13,9.94-21.33,16.06-18.49-0.9
		c0.73-4.38,18.14-33.93,20.21-38.3C34.23,187.1,43.14,191.51,43.14,191.51z"/>
	<path class="st1" d="M32.66,189.19c-2.02,6.29-10.66,18.76-21.06,21.48c-10.4,2.71-6.98-7.97-6.17-9.45
		c3.24-5.97,17.6-17.7,25.65-20.17C33.13,185.14,32.66,189.19,32.66,189.19z"/>
	<path class="st1" d="M31.62,182.03c-3.21,0.48-12.65,2.5-17.36-1.46c-3.26-2.74-2.52-9.98,3.13-11.3
		c5.65-1.33,10.29-0.92,16.14,3.96C33.21,178.75,31.62,182.03,31.62,182.03z"/>
	<path class="st1" d="M39.68,165.32c-1.93-2.91-6.57-10.44-10.36-12.57s-8.03,2.42-7.06,7.71c1.36,7.43,7.87,10.01,13.01,12.45
		C37.5,169.99,39.68,165.32,39.68,165.32z"/>
	<path class="st1" d="M38.09,164.29c-2.69-4.47-9.68-13.24-6.29-24.87c2.39-8.18,9.88-3.4,11.87,1.44
		c1.99,4.84,4.28,9.79,3.19,16.43C43.14,160.06,38.09,164.29,38.09,164.29z"/>
	<path class="st1" d="M48.26,155.08c-2.64-6.85-3.47-20.56-1.68-27.57c1.79-7.01,9.82-12.17,11.4-1.63
		c0.96,6.43-0.68,17.73-2.91,21.96C52.85,152.08,48.26,155.08,48.26,155.08z"/>
	<path class="st1" d="M64.28,146.44c7.47-5.23,21.18-26.09,23.82-34.97c2.64-8.88-0.68-19.37-13.69-6.14s-18.93,37.72-19.72,45.82
		C58.72,148.65,64.28,146.44,64.28,146.44z"/>
	<path class="st1" d="M66.15,155.89c3.81-1.88,33.42-19.64,39.39-32.13c5.44-11.38,0.56-18.9-8.86-12.43s-31.32,34.11-34.13,38.56
		C65.74,151.93,66.15,155.89,66.15,155.89z"/>
	<path class="st1" d="M62.49,162.75c5-1.47,24.47-3.16,29.18-4.93c12.01-4.5,22.51-18.3,6.35-17.2
		c-3.77,0.26-29.71,11.63-34.08,15.2C64.33,159.57,62.49,162.75,62.49,162.75z"/>
	<path class="st1" d="M49.35,185.53c0.59,1.42,12.02,32.88,7.07,52.38c-3.79,14.95-13.13,13.53-16.95,5.32
		c-3.97-8.53-6.19-33.93,2.46-52.04C45.71,187.69,49.35,185.53,49.35,185.53z"/>
	
		<ellipse transform="matrix(0.5399 -0.8417 0.8417 0.5399 -119.3368 118.9373)" class="st2" cx="49.13" cy="168.63" rx="30.01" ry="12.62"/>
	<path class="st3" d="M85.03,194.54"/>
</g>
<g>
	<path class="st4" d="M55.72,272.04c1.95,2.45,3.35,5.29,4.68,8.12c1.25,2.87,2.4,5.79,3.34,8.78c0.48,1.49,0.97,2.98,1.34,4.5
		c0.4,1.51,0.83,3.02,1.15,4.56c0.72,3.05,1.24,6.14,1.75,9.24c0.91,6.2,1.31,12.47,1.26,18.73l-0.13,4.69
		c-0.1,1.56-0.24,3.12-0.37,4.67l-0.22,2.33l-0.33,2.32c-0.23,1.54-0.48,3.08-0.75,4.62c-0.01-1.56,0-3.12,0.03-4.67l0.05-2.32
		l-0.05-2.33c-0.03-1.55-0.01-3.09-0.06-4.64l-0.2-4.63c-0.04-1.54-0.21-3.08-0.3-4.62c-0.11-1.54-0.2-3.08-0.4-4.6
		c-0.18-1.53-0.29-3.07-0.48-4.59l-0.63-4.57c-0.45-3.04-0.95-6.08-1.58-9.1c-0.26-1.52-0.62-3.02-0.96-4.52
		c-0.32-1.51-0.71-3-1.08-4.49c-0.75-2.99-1.62-5.95-2.57-8.89C58.23,277.7,57.19,274.79,55.72,272.04z"/>
	<path class="st5" d="M58.67,230.72c1.23-2.17,6.29-7.21,6.73,0.2c0.44,7.41-3.61,8.24-3.61,8.24l-6.47-2.83L58.67,230.72z"/>
	<path class="st5" d="M45.42,235.78c0.49-2.3,3.6-6.53,5.92-2.32s-2.23,8-2.23,8l-3.45-0.97L45.42,235.78z"/>
	<path class="st5" d="M39.38,241.03c-2.16-0.18-3.61-0.62-4.32,3.54c-0.72,4.16,5.39,0.26,5.39,0.26L39.38,241.03z"/>
	<path class="st5" d="M32.49,250.61c-5.5-2.37-8.35,0.37-5.27,4.62s6.61-2.96,6.61-2.96L32.49,250.61z"/>
	<path class="st5" d="M23.34,258.94c-2.83,0.37-15.48,5.25-5.28,9.67s10.83-4.81,10.83-4.81L23.34,258.94z"/>
	<path class="st5" d="M15.84,277.66c-10.43,3.07-11.63,13.91,1.19,8.59l12.42-11.87l-4.18-2.81L15.84,277.66z"/>
	<path class="st5" d="M19.74,293.76c-7.46,16.25,5.29,15.77,8.95,7.25c2.79-6.5,4.12-15.68,4.12-15.68L19.74,293.76z"/>
	<path class="st5" d="M40.76,294.51c1.46,15.87,11.24,6.12,10.2-2.82c-0.71-6.15-5.05-27.73-5.05-27.73l-4.1,2.25L40.76,294.51z"/>
	<path class="st5" d="M62.43,287.57c5.44,7.7,15.64-1.79,8.92-8.66c-4.23-4.32-20.75-17.85-20.75-17.85l-2.15,3.06L62.43,287.57z"/>
	<path class="st5" d="M82.79,222.86c2.15-0.3,9.76-1.37,5.33,7.77c-4.43,9.15-14.14,10.24-14.09,9.96s-2.87-6.02-2.87-6.02
		L82.79,222.86z"/>
	<path class="st5" d="M82.14,242.18c10.92-2.6,14.99,1.43,4.63,8.51s-17.89,1.02-17.89,1.02s1.11-6.48,1.42-6.61
		C70.61,244.97,82.14,242.18,82.14,242.18z"/>
	<path class="st5" d="M82.58,256.29c8.52,1.75,8.19,7.61-1.52,11.08c-7.9-2.52-25.75-10.34-25.75-10.34l1.37-3.45L82.58,256.29z"/>
	<path class="st5" d="M58.44,257.29c15.43,3.27,23.19,6.55,27.29,11.06c4.7,5.16,0.17,16.18-12.24,11.56
		c-12.41-4.62-20.86-15.07-21.78-16.94C50.8,261.1,58.44,257.29,58.44,257.29z"/>
	<path class="st5" d="M50.28,265c1.62,1.66,14.44,12.02,12.21,26.49c-0.92,5.99-8.36,7.9-13.64,1.58
		c-5.51-6.59-3.59-24.8-2.86-25.95C46.71,265.98,50.28,265,50.28,265z"/>
	<path class="st5" d="M37.92,272.11c-1.06,1.83-9.75,19.14-16.15,24.27c-6.76,5.41-17.62,6.87-12.44-4.15
		c1.34-2.85,18.86-19.67,21.11-22.25C32.68,267.39,37.92,272.11,37.92,272.11z"/>
	<path class="st5" d="M31.22,268.52c-2.58,3.91-10.86,10.75-18.47,10.61s-3.23-6.77-2.4-7.62c3.35-3.45,15.39-8.7,21.35-8.85
		C32.31,265.84,31.22,268.52,31.22,268.52z"/>
	<path class="st5" d="M31.88,263.43c-2.28-0.29-9.1-0.72-11.56-4.32c-1.7-2.49,0.19-7.29,4.3-7.11s7.19,1.34,10.25,5.79
		C33.59,261.5,31.88,263.43,31.88,263.43z"/>
	<path class="st5" d="M40.57,253.58c-0.76-2.36-2.48-8.38-4.66-10.56s-5.94,0.11-6.29,3.9c-0.49,5.32,3.45,8.33,6.49,10.98
		C38.19,256.35,40.57,253.58,40.57,253.58z"/>
	<path class="st5" d="M39.68,252.58c-0.98-3.56-4.07-10.88,0.47-18.16c3.19-5.12,7.39-0.43,7.82,3.25c0.43,3.68,1.05,7.5-0.97,11.82
		C43.94,250.66,39.68,252.58,39.68,252.58z"/>
	<path class="st5" d="M48.38,248.24c-0.49-5.17,1.57-14.68,4.13-19.12c2.57-4.44,9.03-6.42,8.09,1.07
		c-0.57,4.57-3.86,11.96-6.19,14.42S48.38,248.24,48.38,248.24z"/>
	<path class="st5" d="M60.96,245.41c6.09-2.13,19.44-13.74,22.93-19.29c3.5-5.55,3.25-13.34-8.16-6.81
		c-11.41,6.52-20.13,22.1-22.22,27.47C56.75,245.86,60.96,245.41,60.96,245.41z"/>
	<path class="st5" d="M60.43,252.22c2.96-0.55,26.55-7,33.01-14.37c5.89-6.72,4-12.78-3.66-10.17s-27.89,17.27-30.65,19.76
		C60.91,249.44,60.43,252.22,60.43,252.22z"/>
	<path class="st5" d="M56.62,256.19c3.69-0.04,17.29,2.53,20.84,2.22c9.05-0.77,18.85-8.17,7.62-10.51
		c-2.62-0.55-22.48,2.24-26.15,3.84C58.48,254.38,56.62,256.19,56.62,256.19z"/>
	<path class="st5" d="M43.3,269.21c0.13,1.08,1.9,24.72-5.2,37.08c-5.45,9.47-11.55,6.71-12.58,0.38
		c-1.07-6.58,2.27-24.32,11.64-35.02C40.4,269.99,43.3,269.21,43.3,269.21z"/>
	
		<ellipse transform="matrix(0.7473 -0.6645 0.6645 0.7473 -159.4834 95.928)" class="st6" cx="46.38" cy="257.65" rx="21.26" ry="8.94"/>
	<path class="st7" d="M65.91,282.19"/>
</g>
<g>
	<path class="st8" d="M152.63,281.9c3.96,4.02,7,8.87,9.91,13.7c2.77,4.91,5.38,9.94,7.62,15.13c1.14,2.58,2.29,5.17,3.25,7.82
		c1.01,2.64,2.04,5.27,2.92,7.96c1.86,5.34,3.37,10.79,4.86,16.23c2.79,10.95,4.67,22.12,5.76,33.35l0.65,8.43
		c0.12,2.82,0.14,5.64,0.21,8.45l0.04,4.22l-0.17,4.22c-0.13,2.81-0.29,5.62-0.48,8.42c-0.31-2.8-0.59-5.59-0.83-8.38l-0.35-4.18
		l-0.52-4.16c-0.34-2.77-0.6-5.55-0.98-8.31l-1.22-8.26c-0.35-2.76-0.95-5.48-1.4-8.22c-0.49-2.74-0.93-5.48-1.57-8.18
		c-0.6-2.71-1.1-5.44-1.71-8.15l-1.99-8.09c-1.38-5.37-2.85-10.73-4.53-16.02c-0.75-2.67-1.67-5.29-2.56-7.92
		c-0.86-2.64-1.83-5.24-2.77-7.86c-1.91-5.22-4.02-10.36-6.27-15.45C158.18,291.58,155.77,286.56,152.63,281.9z"/>
	<path class="st9" d="M150.21,207.26c1.8-4.12,9.93-14.1,12.1-0.89s-4.93,15.45-4.93,15.45l-12.13-3.86L150.21,207.26z"/>
	<path class="st9" d="M127.39,218.81c0.45-4.21,5.23-12.37,10.19-5.26s-2.51,14.76-2.51,14.76l-6.37-1.1L127.39,218.81z"/>
	<path class="st9" d="M117.53,229.35c-3.91,0.08-6.59-0.44-7.09,7.16s9.7-0.54,9.7-0.54L117.53,229.35z"/>
	<path class="st9" d="M106.97,247.81c-10.3-3.23-14.91,2.23-8.59,9.27s11.29-6.54,11.29-6.54L106.97,247.81z"/>
	<path class="st9" d="M92.12,264.46c-5,1.19-26.77,12.3-7.67,18.32c19.11,6.02,18.52-10.64,18.52-10.64L92.12,264.46z"/>
	<path class="st9" d="M82.16,299.42c-18.14,7.44-18.26,27.11,3.74,15.18l20.06-23.6l-8.03-4.27L82.16,299.42z"/>
	<path class="st9" d="M92.16,327.57c-10.34,30.52,12.43,27.29,17.4,11.34c3.79-12.17,4.47-28.88,4.47-28.88L92.16,327.57z"/>
	<path class="st9" d="M129.99,325c5.59,28.19,21.29,8.88,17.77-6.96c-2.43-10.9-14.22-48.78-14.22-48.78l-6.93,4.8L129.99,325z"/>
	<path class="st9" d="M167.56,308.5c11.19,12.79,27.72-6.13,14.38-17.19c-8.38-6.95-40.53-28.14-40.53-28.14l-3.28,5.89
		L167.56,308.5z"/>
	<path class="st9" d="M191.99,188.67c3.79-0.93,17.25-4.28,11.01,12.95c-6.24,17.23-23.45,21-23.42,20.49
		c0.03-0.51-6.27-10.26-6.27-10.26L191.99,188.67z"/>
	<path class="st9" d="M194.43,223.44c19.1-6.7,27.16-0.23,9.9,14.4c-17.26,14.63-31.89,5.17-31.89,5.17s0.79-11.82,1.32-12.13
		C174.27,230.58,194.43,223.44,194.43,223.44z"/>
	<path class="st9" d="M197.84,248.65c15.6,1.56,16.11,12.12-0.65,20.15c-14.64-3.05-48.1-13.73-48.1-13.73l1.81-6.44L197.84,248.65z
		"/>
	<path class="st9" d="M154.75,254.94c28.28,2.99,42.8,7.43,51,14.73c9.4,8.37,3.32,28.98-19.78,23.02
		c-23.11-5.96-40.21-23.14-42.21-26.31C141.76,263.2,154.75,254.94,154.75,254.94z"/>
	<path class="st9" d="M141.55,270.3c3.22,2.67,28.13,18.86,26.83,45.23c-0.54,10.92-13.51,15.72-24.16,5.38
		c-11.11-10.8-11.06-43.8-9.97-45.99C135.34,272.72,141.55,270.3,141.55,270.3z"/>
	<path class="st9" d="M120.72,285.35c-1.55,3.49-13.91,36.14-24.44,46.53c-11.12,10.97-30.31,15.6-23.08-5.12
		c1.87-5.35,30.16-38.79,33.7-43.84C110.45,277.86,120.72,285.35,120.72,285.35z"/>
	<path class="st9" d="M108.03,280.16c-3.9,7.48-17.47,21.31-31.15,22.48s-7.06-11.54-5.73-13.22c5.36-6.82,25.97-18.48,36.64-19.85
		C109.5,275.16,108.03,280.16,108.03,280.16z"/>
	<path class="st9" d="M108.27,270.92c-4.15-0.09-16.46,0.42-21.54-5.59c-3.51-4.15-1.02-13.1,6.38-13.55
		c7.4-0.45,13.15,1.06,19.46,8.47C110.97,267.13,108.27,270.92,108.27,270.92z"/>
	<path class="st9" d="M122.02,251.63c-1.81-4.09-6.02-14.57-10.32-18.06c-4.3-3.5-10.63,1.31-10.55,8.17
		c0.11,9.64,7.74,14.3,13.69,18.48C118.26,257.04,122.02,251.63,122.02,251.63z"/>
	<path class="st9" d="M120.24,250c-2.42-6.2-9.33-18.75-2.55-32.65c4.77-9.78,13.17-2.14,14.63,4.37
		c1.45,6.52,3.27,13.25,0.47,21.37C127.51,245.76,120.24,250,120.24,250z"/>
	<path class="st9" d="M135.03,240.59c-1.84-9.19,0.07-26.63,3.84-35.06s14.99-13.2,14.7,0.41c-0.17,8.3-4.69,22.16-8.41,27.01
		C141.44,237.81,135.03,240.59,135.03,240.59z"/>
	<path class="st9" d="M157.05,233.18c10.53-4.97,32.29-28.26,37.53-38.86c5.24-10.61,3.33-24.52-15.91-10.69
		c-19.24,13.83-31.97,43.39-34.72,53.4C149.58,234.76,157.05,233.18,157.05,233.18z"/>
	<path class="st9" d="M157.37,245.48c5.2-1.54,46.3-17.5,56.52-31.93c9.3-13.14,4.79-23.67-8.46-17.56
		c-13.25,6.11-46.79,36.17-51.28,41.16C157.7,240.4,157.37,245.48,157.37,245.48z"/>
	<path class="st9" d="M151.28,253.32c6.61-0.77,31.48,1.31,37.79,0.1c16.08-3.07,32.28-18.17,11.71-20.28
		c-4.8-0.49-39.9,8.22-46.18,11.77C154.28,249.72,151.28,253.32,151.28,253.32z"/>
	<path class="st9" d="M129.82,279.15c0.44,1.92,8.03,43.97-2.41,67.45c-8,18-19.45,14.19-22.49,3.04
		c-3.16-11.6-0.47-44.04,14.33-64.96C124.78,281.08,129.82,279.15,129.82,279.15z"/>
	
		<ellipse transform="matrix(0.6745 -0.7383 0.7383 0.6745 -146.9999 182.2549)" class="st10" cx="133.19" cy="257.84" rx="38.32" ry="16.11"/>
	<path class="st11" d="M172.78,298.2"/>
</g>
<g>
	<path class="st12" d="M182.04,140.98c5.29,4.7,9.48,10.5,13.52,16.29c3.88,5.91,7.56,11.97,10.78,18.27
		c1.64,3.13,3.3,6.27,4.71,9.51c1.48,3.21,2.99,6.42,4.31,9.7c2.77,6.52,5.11,13.2,7.43,19.88c4.4,13.45,7.68,27.26,9.97,41.2
		l1.51,10.48c0.38,3.51,0.65,7.03,0.97,10.54l0.4,5.27l0.14,5.29c0.08,3.52,0.11,7.05,0.1,10.56c-0.62-3.47-1.2-6.94-1.73-10.4
		l-0.79-5.19l-1-5.16c-0.65-3.44-1.21-6.88-1.91-10.3l-2.22-10.22c-0.67-3.42-1.65-6.77-2.43-10.16c-0.84-3.38-1.61-6.77-2.64-10.1
		c-0.98-3.34-1.82-6.71-2.82-10.04l-3.16-9.94c-2.17-6.6-4.45-13.17-6.99-19.64c-1.16-3.28-2.52-6.48-3.85-9.69
		c-1.3-3.23-2.72-6.4-4.12-9.59c-2.82-6.36-5.88-12.62-9.12-18.79C189.78,152.62,186.35,146.54,182.04,140.98z"/>
	<path class="st13" d="M172.82,47.91c1.91-5.3,11.23-18.44,15.05-2.12s-4.88,19.71-4.88,19.71l-15.47-3.82L172.82,47.91z"/>
	<path class="st13" d="M145.26,64.23c0.21-5.3,5.51-15.9,12.29-7.42c6.78,8.48-1.91,18.65-1.91,18.65l-8.06-0.85L145.26,64.23z"/>
	<path class="st13" d="M133.81,78.23c-4.88,0.42-8.27,0-8.27,9.54s12.08-1.48,12.08-1.48L133.81,78.23z"/>
	<path class="st13" d="M122.15,102.18c-13.14-3.18-18.44,4.03-9.96,12.29s13.57-9.11,13.57-9.11L122.15,102.18z"/>
	<path class="st13" d="M104.98,124.22c-6.15,1.91-32.43,17.59-8.06,23.53c24.38,5.94,22.26-14.84,22.26-14.84L104.98,124.22z"/>
	<path class="st13" d="M95.45,168.74c-22.05,10.81-20.56,35.4,5.94,18.65l23.11-31.16l-10.39-4.66L95.45,168.74z"/>
	<path class="st13" d="M110.28,203.08c-10.39,39,17.81,33.07,22.68,12.72c3.72-15.52,3.18-36.46,3.18-36.46L110.28,203.08z"/>
	<path class="st13" d="M157.34,196.72c9.33,34.76,27.34,9.33,21.62-10.17c-3.94-13.42-21.83-59.78-21.83-59.78l-8.27,6.57
		L157.34,196.72z"/>
	<path class="st13" d="M202.92,172.98c15.05,15.05,34.13-9.96,16.53-22.68c-11.05-7.99-52.99-31.8-52.99-31.8l-3.6,7.63
		L202.92,172.98z"/>
	<path class="st13" d="M223.48,21.2c4.66-1.48,21.2-6.78,14.84,15.26s-27.56,28.19-27.56,27.56c0-0.64-8.69-12.29-8.69-12.29
		L223.48,21.2z"/>
	<path class="st13" d="M229.41,64.45c23.32-9.96,33.92-2.54,13.57,17.17s-39.43,9.11-39.43,9.11s0-14.84,0.64-15.26
		C204.82,75.05,229.41,64.45,229.41,64.45z"/>
	<path class="st13" d="M235.78,95.67c19.63,0.65,21.14,13.8,0.86,25.23c-18.55-2.59-61.25-13.16-61.25-13.16l1.73-8.2L235.78,95.67z
		"/>
	<path class="st13" d="M182.45,107.11c35.59,1.38,54.1,5.72,64.96,14.17c12.44,9.68,6.57,35.94-22.81,30.41
		s-52.18-25.57-54.94-29.37C166.9,118.52,182.45,107.11,182.45,107.11z"/>
	<path class="st13" d="M167.23,127.41c4.25,3.07,36.72,21.23,37.29,54.28c0.24,13.69-15.58,20.77-29.74,8.73
		c-14.79-12.57-17.47-53.81-16.29-56.64S167.23,127.41,167.23,127.41z"/>
	<path class="st13" d="M142.45,147.94c-1.65,4.48-14.37,46.32-26.67,60.18c-12.98,14.63-36.58,22.02-29.27-4.48
		c1.89-6.84,34.46-50.98,38.47-57.59C129,139.45,142.45,147.94,142.45,147.94z"/>
	<path class="st13" d="M126.17,142.51c-4.25,9.68-20.06,28.09-37.05,30.68s-9.78-13.83-8.26-16.05
		c6.14-8.97,30.92-25.25,44.14-27.85C127.58,136.14,126.17,142.51,126.17,142.51z"/>
	<path class="st13" d="M125.69,130.95c-5.19,0.24-20.53,1.89-27.38-5.19c-4.73-4.89-2.36-16.29,6.84-17.47s16.52,0.24,25.02,8.97
		C128.76,125.99,125.69,130.95,125.69,130.95z"/>
	<path class="st13" d="M141.27,105.69c-2.6-4.96-8.73-17.7-14.4-21.71c-5.66-4.01-13.18,2.53-12.51,11.09
		c0.94,12.04,10.86,17.23,18.65,21.95C137.02,112.78,141.27,105.69,141.27,105.69z"/>
	<path class="st13" d="M138.91,103.81c-3.54-7.55-13.22-22.66-5.9-40.6c5.15-12.61,16.29-3.78,18.65,4.25
		c2.36,8.02,5.19,16.29,2.36,26.67C147.64,97.91,138.91,103.81,138.91,103.81z"/>
	<path class="st13" d="M156.61,90.83c-3.07-11.33-2.12-33.28,1.89-44.14s17.64-17.74,18.41-0.71c0.47,10.38-4.01,28.09-8.26,34.46
		C164.4,86.81,156.61,90.83,156.61,90.83z"/>
	<path class="st13" d="M183.52,79.73c12.74-7.08,38-38,43.66-51.69s2.12-30.92-20.77-12.04s-36.35,56.88-38.94,69.63
		C174.31,82.33,183.52,79.73,183.52,79.73z"/>
	<path class="st13" d="M184.94,95.07c6.37-2.36,56.41-25.73,67.97-44.61c10.53-17.2,4.01-29.97-12.04-21.24s-55.46,49.09-60.66,55.7
		C184.94,88.7,184.94,95.07,184.94,95.07z"/>
	<path class="st13" d="M177.98,105.37c8.2-1.51,39.44-0.99,47.23-3.02c19.84-5.18,38.83-25.39,12.94-26.31
		c-6.04-0.22-49.18,13.59-56.72,18.55C181.43,100.63,177.98,105.37,177.98,105.37z"/>
	<path class="st13" d="M153.31,139.45c0.71,2.36,13.69,54.28,2.6,84.49c-8.51,23.16-23.13,19.35-27.85,5.66
		c-4.91-14.23-4.25-54.99,12.51-82.37C147.17,142.28,153.31,139.45,153.31,139.45z"/>
	
		<ellipse transform="matrix(0.624 -0.7814 0.7814 0.624 -29.3664 164.0232)" class="st14" cx="155.75" cy="112.53" rx="48" ry="20.18"/>
	<path class="st15" d="M208.59,159.67"/>
</g>
</svg>
