<?xml version="1.0" encoding="utf-8"?>
<!-- Generator: Adobe Illustrator 23.0.0, SVG Export Plug-In . SVG Version: 6.00 Build 0)  -->
<svg version="1.1" id="Calque_1" xmlns="http://www.w3.org/2000/svg" xmlns:xlink="http://www.w3.org/1999/xlink" x="0px" y="0px"
	 viewBox="0 0 167.42 209.1" style="enable-background:new 0 0 167.42 209.1;" xml:space="preserve">
<style type="text/css">
	.st0{fill:#F2D91A;stroke:#000000;stroke-width:1.5783;stroke-miterlimit:10;}
	.st1{fill:none;stroke:#000000;stroke-width:1.5783;stroke-linecap:round;stroke-linejoin:round;stroke-miterlimit:10;}
	.st2{fill:#E5E5E5;stroke:#000000;stroke-width:1.5783;stroke-linecap:round;stroke-linejoin:round;stroke-miterlimit:10;}
	.st3{fill:#12491D;stroke:#000000;stroke-width:3.4345;stroke-miterlimit:10;}
	.st4{fill:#F2F2F2;stroke:#000000;stroke-width:3.4345;stroke-miterlimit:10;}
	.st5{fill:#FEA621;stroke:#000000;stroke-width:3.4345;stroke-miterlimit:10;}
	.st6{fill:none;stroke:#000000;stroke-width:3.4345;stroke-miterlimit:10;}
	.st7{fill:#F5D518;stroke:#1D1D1B;stroke-width:1.3174;stroke-miterlimit:10;}
	.st8{fill:#1D1D1B;}
	.st9{fill:none;stroke:#1D1D1B;stroke-width:1.3174;stroke-linecap:round;stroke-linejoin:round;stroke-miterlimit:10;}
	.st10{fill:#ECECEC;stroke:#1D1D1B;stroke-width:1.3174;stroke-linecap:round;stroke-linejoin:round;stroke-miterlimit:10;}
	.st11{fill:#F5D518;stroke:#1D1D1B;stroke-width:1.6004;stroke-miterlimit:10;}
	.st12{fill:none;stroke:#1D1D1B;stroke-width:1.6004;stroke-linecap:round;stroke-linejoin:round;stroke-miterlimit:10;}
	.st13{fill:#ECECEC;stroke:#1D1D1B;stroke-width:1.6004;stroke-linecap:round;stroke-linejoin:round;stroke-miterlimit:10;}
	.st14{fill:#FEA621;stroke:#000000;stroke-width:0.5483;stroke-miterlimit:10;}
	.st15{fill:#FEA621;}
</style>
<g>
	<path class="st0" d="M38.83,23.26c1.99,3.03,6.79,7.17,9.82,5.18s3.88-6.05,1.89-9.08s-5.62-3.22-8.65-1.23
		C38.86,20.11,36.84,20.23,38.83,23.26z"/>
	<circle cx="45.34" cy="21.26" r="1.9"/>
	<path class="st1" d="M43.67,16.55c-1.72-4.92-2.55-6.85-8.16-6.29"/>
	<path class="st1" d="M44.77,16.55c0.51-5.18,0.58-7.28-4.75-9.14"/>
	<path class="st0" d="M50.94,25.88c-2.14,4.45,1.62,10.26,8.19,13.42c6.57,3.16,13.89,2.31,17.25-1.18
		c0.74-5.27-3.28-11.06-9.85-14.22S53.08,21.43,50.94,25.88z"/>
	<path d="M54.75,36.46c4.73-2.39,7.77-9.68,6.86-14.32c-0.06-0.33-3.98,0.36-3.98,0.36c1.02,2.92-1.72,9.44-5.11,10.63
		C52.52,33.13,54.45,36.61,54.75,36.46z"/>
	<path d="M60.75,40.37c2.41-1.31,4.57-3.8,6.05-7.02c1.38-2.99,1.92-6.08,1.55-8.59c-0.08-0.56-4.76-2.13-4.76-2.13l0.65,1.86
		c0.6,1.72,0.2,4.55-1.03,7.21c-1.29,2.8-3.2,4.88-5.12,5.55l-1.21,0.42C56.89,37.67,60.31,40.61,60.75,40.37z"/>
	<path d="M69.72,25.89l0.65,1.86c0.49,1.4,0,4.2-1.2,6.79c-1.26,2.73-3.09,4.84-4.66,5.39l-1.86,0.65c0,0,5.65,1.76,6.62,0.78
		c1.77-1.78,2.94-4.01,3.48-5.17c0.96-2.07,1.53-4.13,1.7-5.97L69.72,25.89z"/>
	<path class="st1" d="M67.57,41.43c-0.45,2.26,1.65,4.41,2.38,4.9"/>
	<path class="st1" d="M60.64,39.85c-1.34,1.88-0.31,4.7,0.16,5.45"/>
	<path class="st1" d="M59.49,38.88c-1.88,1.34-1.82,4.34-1.62,5.21"/>
	<path class="st1" d="M68.71,41.37c0.8,2.16,3.71,2.91,4.59,2.94"/>
	<path class="st1" d="M53.77,35.51c-2.13,0.89-3.13,3.12-1.68,5.68"/>
	<path class="st1" d="M53.12,34.26c-2.2-0.68-4.4,0.4-4.92,3.3"/>
	<path class="st2" d="M62.22,7.33c-4.49,4.71-4.73,14.38-4.73,14.38s9.65-0.7,14.14-5.41s4.71-9.16,2.11-11.64
		C71.14,2.19,66.71,2.62,62.22,7.33z"/>
	<path class="st2" d="M67.72,9.7c-6.11,2.64-10.2,11.65-10.2,11.65s9.37,3.2,15.47,0.56c6.11-2.64,8.1-6.74,6.64-10.11
		S73.83,7.06,67.72,9.7z"/>
</g>
<g>
	<path class="st3" d="M181.5,193.23c8.8,8.64,15.61,19.1,22.14,29.54c6.24,10.63,12.13,21.5,17.2,32.74
		c2.59,5.6,5.2,11.2,7.39,16.96c2.3,5.72,4.66,11.43,6.67,17.26c4.26,11.59,7.76,23.42,11.22,35.27
		c6.51,23.81,11.02,48.14,13.81,72.61l1.73,18.39c0.37,6.15,0.53,12.3,0.77,18.44l0.24,9.21l-0.21,9.22
		c-0.17,6.14-0.42,12.28-0.74,18.4c-0.77-6.1-1.49-12.19-2.12-18.27l-0.92-9.11l-1.3-9.07c-0.84-6.04-1.52-12.09-2.44-18.1l-2.98-18
		c-0.88-6.01-2.28-11.93-3.36-17.9c-1.16-5.96-2.23-11.93-3.73-17.81c-1.41-5.9-2.6-11.85-4.05-17.73l-4.64-17.58
		c-3.21-11.68-6.61-23.32-10.48-34.81c-1.74-5.81-3.84-11.5-5.88-17.21c-1.98-5.73-4.19-11.38-6.35-17.05
		c-4.37-11.32-9.16-22.48-14.27-33.51C193.98,214.17,188.52,203.29,181.5,193.23z"/>
	<path class="st4" d="M173.44,30.36c3.78-9.06,21.15-31.15,26.39-2.4c5.24,28.75-10.19,33.91-10.19,33.91l-26.62-7.98L173.44,30.36z
		"/>
	<path class="st4" d="M124.05,56.41c0.83-9.21,10.97-27.21,22.05-11.86c11.08,15.35-4.93,32.32-4.93,32.32l-13.96-2.17L124.05,56.41
		z"/>
	<path class="st4" d="M102.91,79.79c-8.53,0.32-14.4-0.71-15.22,15.9c-0.82,16.61,21.17-1.54,21.17-1.54L102.91,79.79z"/>
	<path class="st4" d="M80.54,120.5c-22.61-6.67-32.46,5.43-18.41,20.55s24.41-14.71,24.41-14.71L80.54,120.5z"/>
	<path class="st4" d="M48.74,157.42c-10.87,2.79-58,27.85-16.05,40.28c41.94,12.44,40.04-23.92,40.04-23.92L48.74,157.42z"/>
	<path class="st4" d="M28.29,234.12c-39.32,16.93-38.86,59.88,8.73,33l42.92-52.28l-17.69-9.02L28.29,234.12z"/>
	<path class="st4" d="M51.18,295.2c-21.45,67.03,28.16,59.12,38.4,24.1c7.81-26.71,8.68-63.22,8.68-63.22L51.18,295.2z"/>
	<path class="st4" d="M133.68,288.18c13.25,61.35,46.82,18.6,38.53-15.86c-5.7-23.72-32.87-105.98-32.87-105.98l-14.96,10.73
		L133.68,288.18z"/>
	<path class="st4" d="M215.09,250.76c24.91,27.51,60.29-14.41,30.75-38.08c-18.56-14.87-89.55-59.94-89.55-59.94l-6.93,12.98
		L215.09,250.76z"/>
	<path class="st4" d="M263.97-11.79c8.25-2.18,37.5-9.99,24.53,27.86c-12.97,37.84-50.42,46.72-50.36,45.62
		c0.05-1.11-14.08-22.16-14.08-22.16L263.97-11.79z"/>
	<path class="st4" d="M270.58,64.03c41.47-15.34,59.28-1.51,22.15,31.07s-69.45,12.48-69.45,12.48s1.28-25.84,2.42-26.52
		S270.58,64.03,270.58,64.03z"/>
	<path class="st4" d="M278.99,118.95c34.12,2.82,35.62,25.86-0.67,44.02c-32.08-6.1-105.54-28.19-105.54-28.19l3.71-14.12
		L278.99,118.95z"/>
	<path class="st4" d="M185.12,134.29c61.86,5.47,93.73,14.62,111.92,30.27c20.83,17.92,8.34,63.15-42.34,50.99
		c-50.68-12.16-88.67-49.03-93.15-55.88S185.12,134.29,185.12,134.29z"/>
	<path class="st4" d="M156.87,168.33c7.13,5.71,62.12,40.14,60.27,97.75c-0.77,23.86-28.92,34.83-52.54,12.65
		c-24.67-23.16-25.78-95.22-23.48-100.05S156.87,168.33,156.87,168.33z"/>
	<path class="st4" d="M111.95,201.95c-3.26,7.67-29.02,79.43-51.63,102.52c-23.87,24.37-65.6,35.2-50.58-10.33
		c3.88-11.76,64.4-85.81,71.96-96.98C89.25,185.99,111.95,201.95,111.95,201.95z"/>
	<path class="st4" d="M84.05,191.09c-8.23,16.49-37.36,47.18-67.17,50.24c-29.82,3.06-15.84-24.92-13-28.66
		c11.46-15.09,56.02-41.32,79.26-44.7C87.07,180.12,84.05,191.09,84.05,191.09z"/>
	<path class="st4" d="M84.23,170.91c-9.06-0.04-35.92,1.52-47.23-11.4c-7.82-8.93-2.71-28.56,13.42-29.83
		c16.13-1.26,28.75,1.83,42.8,17.77C90,162.55,84.23,170.91,84.23,170.91z"/>
	<path class="st4" d="M113.53,128.27c-4.09-8.86-13.68-31.58-23.2-39.05c-9.52-7.48-23.17,3.27-22.74,18.24
		c0.61,21.04,17.42,30.94,30.58,39.83C105.52,140.24,113.53,128.27,113.53,128.27z"/>
	<path class="st4" d="M109.58,124.78c-5.51-13.46-21.07-40.6-6.78-71.21c10.05-21.53,28.69-5.17,32.11,9
		c3.42,14.18,7.64,28.81,1.81,46.65C125.3,115.26,109.58,124.78,109.58,124.78z"/>
	<path class="st4" d="M141.53,103.7c-4.37-19.99-0.83-58.14,7.09-76.7s32.24-29.38,32.12,0.35c-0.07,18.13-9.41,48.57-17.35,59.3
		C155.44,97.38,141.53,103.7,141.53,103.7z"/>
	<path class="st4" d="M189.34,86.7c22.81-11.23,69.45-62.9,80.49-86.25s6.36-53.66-35.13-22.75s-68.2,95.93-73.82,117.9
		C173.09,90.43,189.34,86.7,189.34,86.7z"/>
	<path class="st4" d="M190.49,113.54c11.3-3.56,100.45-39.94,122.22-71.83c19.83-29.04,9.57-51.86-19.13-38.03
		C264.87,17.5,192.75,84.4,183.14,95.46C191.03,102.44,190.49,113.54,190.49,113.54z"/>
	<path class="st4" d="M177.49,130.88c14.4-1.92,68.77,1.68,82.52-1.19c35-7.31,69.81-40.87,24.8-44.71
		c-10.5-0.9-86.81,19.43-100.38,27.42C183.9,122.91,177.49,130.88,177.49,130.88z"/>
	<path class="st4" d="M131.59,188.09c1.03,4.17,19.16,95.72-2.76,147.37c-16.81,39.61-41.95,31.71-48.99,7.47
		c-7.32-25.21-2.66-96.14,28.88-142.37C120.66,192.49,131.59,188.09,131.59,188.09z"/>
	
		<ellipse transform="matrix(0.6618 -0.7497 0.7497 0.6618 -59.293 151.3981)" class="st5" cx="138.16" cy="141.42" rx="83.69" ry="35.18"/>
	<path class="st6" d="M226.11,228.08"/>
</g>
<g>
	<path class="st7" d="M135.66,173.47c-2.36,1.88-7.26,3.87-9.16,1.48c-1.88-2.36-1.45-5.83,0.92-7.67c2.36-1.88,5.32-1.05,7.16,1.32
		C136.47,170.95,138.02,171.59,135.66,173.47z"/>
	<circle class="st8" cx="131.05" cy="170.16" r="1.57"/>
	<path class="st9" d="M133.62,166.86c2.69-3.42,3.85-4.75,8.12-2.79"/>
	<path class="st9" d="M132.73,166.58c0.99-4.24,1.46-5.92,6.2-5.96"/>
	<path class="st7" d="M125.39,172.33c0.52,4.08-4.02,7.69-10.05,8.43s-11.59-1.88-13.35-5.5c0.82-4.37,5.51-7.89,11.57-8.65
		C119.6,165.87,124.85,168.22,125.39,172.33z"/>
	<path class="st8" d="M119.54,179.68c-3.09-3.13-3.59-9.73-1.61-13.15c0.14-0.25,3.05,1.34,3.05,1.34
		c-1.58,2.04-1.14,7.92,1.21,9.77C122.19,177.65,119.74,179.88,119.54,179.68z"/>
	<path class="st8" d="M113.78,181.19c-1.58-1.69-2.62-4.22-2.93-7.17c-0.29-2.71,0.09-5.3,1.06-7.22c0.23-0.41,4.31-0.42,4.31-0.42
		l-1.01,1.31c-0.94,1.2-1.38,3.54-1.12,5.98c0.27,2.56,1.24,4.7,2.56,5.74l0.85,0.65C117.54,180.08,114.05,181.47,113.78,181.19z"/>
	<path class="st8" d="M110.52,167.35l-1.01,1.31c-0.75,0.97-1.12,3.31-0.85,5.68c0.28,2.48,1.14,4.65,2.27,5.5l1.31,1.01
		c0,0-4.96-0.11-5.44-1.14c-0.94-1.87-1.25-3.94-1.37-5.03c-0.2-1.89-0.13-3.68,0.26-5.17L110.52,167.35z"/>
	<path class="st9" d="M108.08,180.19c-0.26,1.91-2.48,3.07-3.19,3.23"/>
	<path class="st9" d="M113.97,180.79c0.58,1.85-1,3.82-1.56,4.27"/>
	<path class="st9" d="M115.16,180.32c1.13,1.56,0.3,3.93-0.11,4.56"/>
	<path class="st9" d="M107.19,179.83c-1.21,1.5-3.72,1.32-4.42,1.13"/>
	<path class="st9" d="M120.57,179.2c1.45,1.27,1.67,3.31-0.16,4.94"/>
	<path class="st9" d="M121.43,178.38c1.91,0.07,3.38,1.49,3.01,3.91"/>
	<path class="st10" d="M121.39,154.66c2.3,4.9-0.08,12.65-0.08,12.65s-7.45-3.13-9.75-8.03c-2.3-4.9-1.29-8.49,1.43-9.76
		C115.69,148.21,119.08,149.73,121.39,154.66z"/>
	<path class="st10" d="M116.41,155.07c4.14,3.7,4.98,11.93,4.98,11.93s-8.28,0.03-12.39-3.68c-4.11-3.71-4.62-7.48-2.57-9.74
		C108.46,151.28,112.25,151.34,116.41,155.07z"/>
</g>
<g>
	<path class="st11" d="M150.04,119.29c-1.98,3.08-6.84,7.29-9.95,5.28c-3.08-1.98-3.95-6.14-1.94-9.19
		c1.98-3.08,5.71-3.29,8.76-1.28C149.98,116.08,152.02,116.21,150.04,119.29z"/>
	<circle class="st8" cx="143.44" cy="117.29" r="1.91"/>
	<path class="st12" d="M145.11,112.48c1.75-4.99,2.57-6.97,8.25-6.39"/>
	<path class="st12" d="M143.97,112.52c-0.52-5.26-0.64-7.38,4.8-9.28"/>
	<path class="st11" d="M137.78,122c2.19,4.49-1.62,10.41-8.26,13.63s-14.06,2.37-17.5-1.11c-0.77-5.35,3.25-11.23,9.93-14.47
		C128.59,116.83,135.56,117.48,137.78,122z"/>
	<path class="st8" d="M133.93,132.74c-4.78-2.39-7.94-9.79-6.99-14.5c0.06-0.34,4.03,0.35,4.03,0.35
		c-1.02,2.97,1.79,9.55,5.21,10.77C136.18,129.36,134.23,132.89,133.93,132.74z"/>
	<path class="st8" d="M127.89,136.72c-2.47-1.33-4.67-3.83-6.17-7.1c-1.4-3.01-1.97-6.13-1.6-8.72c0.11-0.56,4.8-2.17,4.8-2.17
		l-0.65,1.9c-0.61,1.74-0.21,4.61,1.05,7.32c1.32,2.84,3.26,4.92,5.19,5.6l1.23,0.41C131.79,133.98,128.31,136.94,127.89,136.72z"/>
	<path class="st8" d="M118.73,122.09l-0.65,1.9c-0.49,1.41,0.01,4.25,1.25,6.86c1.29,2.75,3.13,4.91,4.76,5.44l1.9,0.65
		c0,0-5.74,1.81-6.7,0.82c-1.81-1.78-2.98-4.04-3.55-5.25c-0.97-2.09-1.59-4.19-1.72-6.05L118.73,122.09z"/>
	<path class="st12" d="M120.94,137.8c0.45,2.3-1.65,4.49-2.41,4.97"/>
	<path class="st12" d="M127.96,136.19c1.39,1.9,0.34,4.78-0.13,5.53"/>
	<path class="st12" d="M129.14,135.19c1.91,1.35,1.88,4.4,1.66,5.29"/>
	<path class="st12" d="M119.78,137.74c-0.8,2.2-3.76,2.97-4.65,3.03"/>
	<path class="st12" d="M134.92,131.78c2.16,0.9,3.21,3.15,1.75,5.74"/>
	<path class="st12" d="M135.59,130.51c2.22-0.67,4.47,0.39,4.99,3.32"/>
	<path class="st13" d="M126.27,103.24c4.56,4.74,4.85,14.58,4.85,14.58s-9.79-0.69-14.36-5.42s-4.8-9.26-2.18-11.78
		C117.19,98.05,121.68,98.47,126.27,103.24z"/>
	<path class="st13" d="M120.7,105.66c6.21,2.63,10.39,11.78,10.39,11.78s-9.51,3.27-15.69,0.61c-6.18-2.66-8.24-6.79-6.77-10.2
		C110.07,104.4,114.46,102.99,120.7,105.66z"/>
</g>
<circle class="st14" cx="71.39" cy="43.44" r="1.49"/>
<circle class="st14" cx="68.28" cy="44.87" r="1.49"/>
<circle class="st15" cx="140.6" cy="134.2" r="1.49"/>
<circle class="st15" cx="136.63" cy="137.81" r="1.49"/>
<circle class="st15" cx="138.24" cy="137.19" r="1.49"/>
<circle class="st15" cx="119.05" cy="144.1" r="1.49"/>
<circle class="st14" cx="136.97" cy="133.98" r="1.49"/>
<circle class="st15" cx="126.39" cy="141.75" r="1.49"/>
<circle class="st15" cx="128.65" cy="142.85" r="1.49"/>
<circle class="st15" cx="132.41" cy="141.47" r="1.49"/>
<circle class="st15" cx="130.12" cy="142.09" r="1.49"/>
<circle class="st14" cx="130.64" cy="138.17" r="1.49"/>
<circle class="st14" cx="60.44" cy="42.84" r="1.49"/>
<circle class="st14" cx="57.52" cy="41.73" r="1.49"/>
<circle class="st14" cx="51.3" cy="39.18" r="1.49"/>
<circle class="st14" cx="49.22" cy="35.05" r="1.49"/>
<circle class="st15" cx="119.74" cy="184.85" r="1.22"/>
<circle class="st15" cx="121.12" cy="185.16" r="1.22"/>
<circle class="st15" cx="123.46" cy="183.1" r="1.22"/>
<circle class="st15" cx="125.22" cy="183.29" r="1.22"/>
<circle class="st14" cx="124.12" cy="180.13" r="1.22"/>
<circle class="st15" cx="115.74" cy="186.03" r="1.22"/>
<circle class="st15" cx="114.37" cy="185.97" r="1.22"/>
<circle class="st14" cx="115.82" cy="183.18" r="1.22"/>
<circle class="st15" cx="111.98" cy="185.87" r="1.22"/>
<circle class="st15" cx="104.7" cy="184.82" r="1.22"/>
<circle class="st15" cx="103.83" cy="183.9" r="1.22"/>
<circle class="st14" cx="102.87" cy="181.05" r="1.22"/>
</svg>
