<?xml version="1.0" encoding="utf-8"?>
<!-- Generator: Adobe Illustrator 23.0.0, SVG Export Plug-In . SVG Version: 6.00 Build 0)  -->
<svg version="1.1" id="Calque_1" xmlns="http://www.w3.org/2000/svg" xmlns:xlink="http://www.w3.org/1999/xlink" x="0px" y="0px"
	 viewBox="0 0 220.82 363.45" style="enable-background:new 0 0 220.82 363.45;" xml:space="preserve">
<style type="text/css">
	.st0{fill:#12491D;stroke:#000000;stroke-width:1.9697;stroke-miterlimit:10;}
	.st1{fill:#F2F2F2;stroke:#000000;stroke-width:1.9697;stroke-miterlimit:10;}
	.st2{fill:#FEA621;stroke:#000000;stroke-width:1.9697;stroke-miterlimit:10;}
	.st3{fill:none;stroke:#000000;stroke-width:1.9697;stroke-miterlimit:10;}
	.st4{fill:#F5D518;stroke:#1D1D1B;stroke-width:1.6004;stroke-miterlimit:10;}
	.st5{fill:#1D1D1B;}
	.st6{fill:none;stroke:#1D1D1B;stroke-width:1.6004;stroke-linecap:round;stroke-linejoin:round;stroke-miterlimit:10;}
	.st7{fill:#ECECEC;stroke:#1D1D1B;stroke-width:1.6004;stroke-linecap:round;stroke-linejoin:round;stroke-miterlimit:10;}
</style>
<g>
	<path class="st0" d="M159.95,223.55c5.05,4.95,8.95,10.96,12.7,16.94c3.58,6.1,6.96,12.33,9.87,18.78
		c1.49,3.21,2.98,6.42,4.24,9.73c1.32,3.28,2.67,6.56,3.82,9.9c2.44,6.64,4.45,13.43,6.44,20.23c3.73,13.66,6.32,27.61,7.92,41.64
		l0.99,10.55c0.21,3.52,0.3,7.06,0.44,10.58l0.14,5.28l-0.12,5.29c-0.1,3.52-0.24,7.04-0.42,10.55c-0.44-3.5-0.85-6.99-1.21-10.48
		l-0.53-5.22l-0.75-5.2c-0.48-3.46-0.87-6.93-1.4-10.38l-1.71-10.32c-0.5-3.45-1.31-6.84-1.93-10.27
		c-0.67-3.42-1.28-6.84-2.14-10.21c-0.81-3.38-1.49-6.79-2.32-10.17l-2.66-10.08c-1.84-6.7-3.79-13.38-6.01-19.96
		c-1-3.33-2.2-6.59-3.37-9.87c-1.14-3.29-2.4-6.53-3.64-9.78c-2.5-6.49-5.25-12.89-8.19-19.22
		C167.11,235.56,163.98,229.32,159.95,223.55z"/>
	<path class="st1" d="M155.33,130.15c2.17-5.2,12.13-17.86,15.14-1.37c3,16.49-5.84,19.45-5.84,19.45l-15.27-4.58L155.33,130.15z"/>
	<path class="st1" d="M127.01,145.09c0.47-5.28,6.29-15.61,12.65-6.8c6.36,8.8-2.83,18.54-2.83,18.54l-8-1.24L127.01,145.09z"/>
	<path class="st1" d="M114.88,158.49c-4.89,0.18-8.26-0.41-8.73,9.12c-0.47,9.53,12.14-0.89,12.14-0.89L114.88,158.49z"/>
	<path class="st1" d="M102.05,181.84c-12.97-3.82-18.62,3.11-10.56,11.79s14-8.43,14-8.43L102.05,181.84z"/>
	<path class="st1" d="M83.82,203.01c-6.23,1.6-33.26,15.97-9.21,23.1s22.96-13.72,22.96-13.72L83.82,203.01z"/>
	<path class="st1" d="M72.09,247c-22.55,9.71-22.29,34.34,5.01,18.92l24.62-29.98l-10.14-5.17L72.09,247z"/>
	<path class="st1" d="M85.21,282.03c-12.3,38.44,16.15,33.91,22.03,13.82c4.48-15.32,4.98-36.26,4.98-36.26L85.21,282.03z"/>
	<path class="st1" d="M132.53,278.01c7.6,35.18,26.85,10.67,22.1-9.09c-3.27-13.6-18.85-60.78-18.85-60.78l-8.58,6.15L132.53,278.01
		z"/>
	<path class="st1" d="M179.22,256.55c14.29,15.78,34.58-8.26,17.63-21.84c-10.65-8.53-51.36-34.38-51.36-34.38l-3.98,7.44
		L179.22,256.55z"/>
	<path class="st1" d="M207.25,105.97c4.73-1.25,21.51-5.73,14.07,15.98s-28.92,26.8-28.88,26.16c0.03-0.64-8.07-12.71-8.07-12.71
		L207.25,105.97z"/>
	<path class="st1" d="M211.05,149.46c23.78-8.8,34-0.87,12.7,17.82s-39.83,7.16-39.83,7.16s0.73-14.82,1.39-15.21
		C185.96,158.83,211.05,149.46,211.05,149.46z"/>
	<path class="st1" d="M215.86,180.95c19.57,1.62,20.43,14.83-0.38,25.25c-18.4-3.5-60.53-16.17-60.53-16.17l2.13-8.1L215.86,180.95z
		"/>
	<path class="st1" d="M162.03,189.75c35.48,3.14,53.75,8.38,64.18,17.36c11.95,10.28,4.78,36.22-24.28,29.24
		s-50.85-28.12-53.42-32.05C145.94,200.37,162.03,189.75,162.03,189.75z"/>
	<path class="st1" d="M145.83,209.27c4.09,3.27,35.63,23.02,34.56,56.06c-0.44,13.68-16.58,19.97-30.13,7.25
		c-14.15-13.28-14.79-54.61-13.47-57.38C138.11,212.43,145.83,209.27,145.83,209.27z"/>
	<path class="st1" d="M120.07,228.55c-1.87,4.4-16.64,45.56-29.61,58.79c-13.69,13.97-37.62,20.19-29.01-5.92
		c2.22-6.74,36.93-49.22,41.27-55.62C107.05,219.4,120.07,228.55,120.07,228.55z"/>
	<path class="st1" d="M104.07,222.33c-4.72,9.46-21.42,27.06-38.53,28.81c-17.1,1.75-9.09-14.29-7.46-16.44
		c6.57-8.65,32.13-23.7,45.46-25.64C105.8,216.03,104.07,222.33,104.07,222.33z"/>
	<path class="st1" d="M104.17,210.75c-5.2-0.02-20.6,0.87-27.09-6.54c-4.48-5.12-1.55-16.38,7.7-17.11s16.49,1.05,24.54,10.19
		C107.48,205.95,104.17,210.75,104.17,210.75z"/>
	<path class="st1" d="M120.97,186.3c-2.35-5.08-7.85-18.11-13.31-22.4c-5.46-4.29-13.29,1.87-13.04,10.46
		c0.35,12.07,9.99,17.74,17.54,22.84C116.38,193.16,120.97,186.3,120.97,186.3z"/>
	<path class="st1" d="M118.71,184.3c-3.16-7.72-12.08-23.28-3.89-40.84c5.76-12.35,16.45-2.97,18.41,5.16s4.38,16.52,1.04,26.75
		C127.72,178.84,118.71,184.3,118.71,184.3z"/>
	<path class="st1" d="M137.03,172.21c-2.5-11.47-0.48-33.34,4.07-43.99s18.49-16.85,18.42,0.2c-0.04,10.4-5.39,27.85-9.95,34.01
		C145.01,168.58,137.03,172.21,137.03,172.21z"/>
	<path class="st1" d="M164.45,162.46c13.08-6.44,39.83-36.08,46.16-49.47s3.65-30.78-20.15-13.05s-39.11,55.02-42.33,67.62
		C155.13,164.59,164.45,162.46,164.45,162.46z"/>
	<path class="st1" d="M165.11,177.85c6.48-2.04,57.61-22.91,70.09-41.2c11.37-16.66,5.49-29.74-10.97-21.81
		s-57.82,46.29-63.33,52.64C165.42,171.48,165.11,177.85,165.11,177.85z"/>
	<path class="st1" d="M157.65,187.79c8.26-1.1,39.44,0.96,47.33-0.68c20.07-4.19,40.04-23.44,14.22-25.64
		c-6.02-0.51-49.79,11.14-57.57,15.72C161.33,183.22,157.65,187.79,157.65,187.79z"/>
	<path class="st1" d="M131.33,220.6c0.59,2.39,10.99,54.89-1.58,84.52c-9.64,22.71-24.06,18.19-28.1,4.28
		c-4.2-14.46-1.53-55.13,16.56-81.65C125.06,223.13,131.33,220.6,131.33,220.6z"/>
	
		<ellipse transform="matrix(0.6618 -0.7497 0.7497 0.6618 -99.6249 166.8315)" class="st2" cx="135.1" cy="193.84" rx="48" ry="20.18"/>
	<path class="st3" d="M185.54,243.54"/>
</g>
<g>
	<path class="st4" d="M59.09,43.79c-3.5,1.06-9.94,1.11-11-2.44c-1.06-3.5,0.98-7.23,4.48-8.25c3.5-1.06,6.48,1.2,7.5,4.7
		C61.13,41.31,62.6,42.73,59.09,43.79z"/>
	<circle class="st5" cx="55.37" cy="37.98" r="1.91"/>
	<path class="st6" d="M59.76,35.41c4.57-2.66,6.48-3.64,10.42,0.49"/>
	<path class="st6" d="M58.87,34.7c3.02-4.35,4.3-6.03,9.67-3.95"/>
	<path class="st4" d="M48.01,37.89c-1.24,4.83-7.98,6.88-15.13,5.01s-12.24-7.32-12.6-12.2c2.88-4.57,9.76-6.43,16.94-4.57
		C44.37,28,49.25,33.01,48.01,37.89z"/>
	<path class="st5" d="M38.11,43.57c-2.08-4.92,0.31-12.6,4.08-15.57c0.27-0.22,2.84,2.88,2.84,2.88c-2.71,1.6-4.83,8.43-3.02,11.58
		C42.02,42.46,38.25,43.88,38.11,43.57z"/>
	<path class="st5" d="M30.93,42.68c-1.02-2.62-1.06-5.94-0.09-9.4c0.89-3.19,2.48-5.94,4.44-7.67c0.44-0.35,5.06,1.46,5.06,1.46
		l-1.73,1.02c-1.6,0.93-3.15,3.37-3.95,6.25c-0.84,3.02-0.71,5.86,0.31,7.63l0.67,1.11C35.67,43.12,31.1,43.12,30.93,42.68z"/>
	<path class="st5" d="M33.46,25.6l-1.73,1.02c-1.29,0.75-2.75,3.24-3.5,6.03c-0.8,2.93-0.8,5.77,0.09,7.23l1.02,1.73
		c0,0-5.54-2.35-5.63-3.73c-0.22-2.53,0.35-5.01,0.71-6.3c0.62-2.22,1.51-4.21,2.62-5.72L33.46,25.6z"/>
	<path class="st6" d="M24.94,39c-1.15,2.04-4.17,2.35-5.06,2.22"/>
	<path class="st6" d="M31.33,42.33c-0.18,2.35-2.84,3.86-3.68,4.13"/>
	<path class="st6" d="M32.88,42.33c0.58,2.26-1.42,4.57-2.17,5.1"/>
	<path class="st6" d="M24.1,38.2c-2.04,1.15-4.79-0.18-5.5-0.71"/>
	<path class="st6" d="M39.49,43.48c1.06,2.08,0.4,4.48-2.4,5.5"/>
	<path class="st6" d="M40.82,42.95c2.13,0.93,3.15,3.19,1.64,5.77"/>
	<path class="st7" d="M51.42,16.16c0.4,6.56-5.77,14.24-5.77,14.24s-7.01-6.88-7.41-13.44S40.6,6.8,44.23,6.57
		C47.87,6.31,51.02,9.55,51.42,16.16z"/>
	<path class="st7" d="M45.61,14.38c3.02,6.03,0.27,15.7,0.27,15.7s-9.36-3.68-12.33-9.71S31.68,9.86,35.01,8.22
		C38.34,6.53,42.59,8.3,45.61,14.38z"/>
</g>
</svg>
