<?xml version="1.0" encoding="utf-8"?>
<!-- Generator: Adobe Illustrator 23.0.0, SVG Export Plug-In . SVG Version: 6.00 Build 0)  -->
<svg version="1.1" id="Calque_1" xmlns="http://www.w3.org/2000/svg" xmlns:xlink="http://www.w3.org/1999/xlink" x="0px" y="0px"
	 viewBox="0 0 220.82 336.5" style="enable-background:new 0 0 220.82 336.5;" xml:space="preserve">
<style type="text/css">
	.st0{fill:#12491D;stroke:#000000;stroke-width:1.2316;stroke-miterlimit:10;}
	.st1{fill:#F2F2F2;stroke:#000000;stroke-width:1.2316;stroke-miterlimit:10;}
	.st2{fill:#FEA621;stroke:#000000;stroke-width:1.2316;stroke-miterlimit:10;}
	.st3{fill:none;stroke:#000000;stroke-width:1.2316;stroke-miterlimit:10;}
	.st4{fill:#12491D;stroke:#000000;stroke-width:0.8723;stroke-miterlimit:10;}
	.st5{fill:#F2F2F2;stroke:#000000;stroke-width:0.8723;stroke-miterlimit:10;}
	.st6{fill:#FEA621;stroke:#000000;stroke-width:0.8723;stroke-miterlimit:10;}
	.st7{fill:none;stroke:#000000;stroke-width:0.8723;stroke-miterlimit:10;}
	.st8{fill:#12491D;stroke:#000000;stroke-width:1.5727;stroke-miterlimit:10;}
	.st9{fill:#F2F2F2;stroke:#000000;stroke-width:1.5727;stroke-miterlimit:10;}
	.st10{fill:#FEA621;stroke:#000000;stroke-width:1.5727;stroke-miterlimit:10;}
	.st11{fill:none;stroke:#000000;stroke-width:1.5727;stroke-miterlimit:10;}
	.st12{fill:#12491D;stroke:#000000;stroke-width:1.9697;stroke-miterlimit:10;}
	.st13{fill:#F2F2F2;stroke:#000000;stroke-width:1.9697;stroke-miterlimit:10;}
	.st14{fill:#FEA621;stroke:#000000;stroke-width:1.9697;stroke-miterlimit:10;}
	.st15{fill:none;stroke:#000000;stroke-width:1.9697;stroke-miterlimit:10;}
</style>
<g>
	<path class="st0" d="M152.29,185.63c-3.59,2.58-6.58,5.92-9.46,9.26c-2.79,3.43-5.47,6.96-7.89,10.67
		c-1.22,1.84-2.46,3.68-3.55,5.61c-1.13,1.9-2.28,3.8-3.31,5.75c-2.14,3.87-4.03,7.88-5.9,11.89c-3.61,8.08-6.54,16.46-8.86,24.98
		l-1.62,6.42c-0.47,2.16-0.86,4.33-1.28,6.49l-0.59,3.25l-0.43,3.28c-0.28,2.19-0.52,4.37-0.74,6.56c0.61-2.12,1.19-4.24,1.75-6.36
		l0.82-3.18l0.96-3.14c0.63-2.09,1.2-4.2,1.85-6.28l2.04-6.22c0.64-2.08,1.46-4.1,2.17-6.16c0.74-2.05,1.44-4.11,2.29-6.11
		c0.82-2.01,1.57-4.06,2.4-6.06l2.61-5.98c1.78-3.97,3.62-7.9,5.62-11.76c0.94-1.96,1.99-3.87,3.02-5.78
		c1.02-1.92,2.11-3.8,3.18-5.7c2.17-3.77,4.47-7.47,6.89-11.1C146.72,192.37,149.25,188.81,152.29,185.63z"/>
	<path class="st1" d="M164.04,128.34c-0.84-3.42-5.8-12.2-9.22-2.29s1.76,12.58,1.76,12.58l9.87-1.37L164.04,128.34z"/>
	<path class="st1" d="M180.12,140.27c0.21-3.31-2.4-10.24-7.17-5.41c-4.77,4.84-0.02,11.72-0.02,11.72l5.06-0.01L180.12,140.27z"/>
	<path class="st1" d="M186.34,149.71c3,0.58,5.14,0.53,4.53,6.47s-7.42-1.7-7.42-1.7L186.34,149.71z"/>
	<path class="st1" d="M192.04,165.36c8.38-1.13,11.21,3.7,5.4,8.29c-5.81,4.59-7.85-6.55-7.85-6.55L192.04,165.36z"/>
	<path class="st1" d="M201.29,180.18c3.7,1.58,19.03,13.04,3.49,15.15s-12.88-10.67-12.88-10.67L201.29,180.18z"/>
	<path class="st1" d="M204.35,208.49c13.01,8.15,10.5,23.34-4.9,11.22l-12.36-20.87l6.76-2.23L204.35,208.49z"/>
	<path class="st1" d="M192.9,228.88c3.94,24.93-13.21,19.42-14.93,6.44c-1.31-9.89,0.38-22.88,0.38-22.88L192.9,228.88z"/>
	<path class="st1" d="M164.05,221.89c-8.05,21.02-17.61,4.03-12.79-7.72c3.32-8.09,17.44-35.77,17.44-35.77l4.72,4.62L164.05,221.89
		z"/>
	<path class="st1" d="M137.24,204.18c-10.33,8.39-20.58-8.4-8.82-15.17c7.39-4.26,35.01-16.35,35.01-16.35l1.75,4.98L137.24,204.18z
		"/>
	<path class="st1" d="M134.26,108.46c-2.8-1.22-12.75-5.59-10.21,8.53c2.53,14.12,15.32,19.31,15.36,18.92
		c0.04-0.4,6.2-7.08,6.2-7.08L134.26,108.46z"/>
	<path class="st1" d="M127.77,134.97c-13.86-7.7-20.93-3.77-9.55,9.8c11.38,13.58,23.93,8.22,23.93,8.22s0.96-9.23,0.59-9.53
		C142.38,143.15,127.77,134.97,127.77,134.97z"/>
	<path class="st1" d="M121.79,153.97c-12.25-0.87-14.04,7.22-2.17,15.64c11.7-0.41,38.94-4.23,38.94-4.23l-0.54-5.21L121.79,153.97z
		"/>
	<path class="st1" d="M154.22,164.54c-22.22-1.44-34.02,0.06-41.32,4.61c-8.36,5.21-6.4,21.93,12.22,20.39s34.1-12.53,36.07-14.72
		S154.22,164.54,154.22,164.54z"/>
	<path class="st1" d="M162.37,178.14c-2.84,1.63-24.21,10.83-26.7,31.35c-1.03,8.5,8.35,13.92,17.93,7.35
		c10.01-6.86,14.34-32.34,13.79-34.18S162.37,178.14,162.37,178.14z"/>
	<path class="st1" d="M176.46,192.51c0.74,2.9,5.95,29.74,12.7,39.15c7.13,9.94,21.33,16.06,18.49-0.9
		c-0.73-4.38-18.14-33.93-20.21-38.3S176.46,192.51,176.46,192.51z"/>
	<path class="st1" d="M186.94,190.19c2.02,6.29,10.66,18.76,21.06,21.48c10.4,2.71,6.98-7.97,6.17-9.45
		c-3.24-5.97-17.6-17.7-25.65-20.17C186.47,186.14,186.94,190.19,186.94,190.19z"/>
	<path class="st1" d="M187.98,183.03c3.21,0.48,12.65,2.5,17.36-1.46c3.26-2.74,2.52-9.98-3.13-11.3
		c-5.65-1.33-10.29-0.92-16.14,3.96C186.39,179.75,187.98,183.03,187.98,183.03z"/>
	<path class="st1" d="M179.92,166.32c1.93-2.91,6.57-10.44,10.36-12.57c3.78-2.13,8.03,2.42,7.06,7.71
		c-1.36,7.43-7.87,10.01-13.01,12.45C182.11,170.99,179.92,166.32,179.92,166.32z"/>
	<path class="st1" d="M181.51,165.29c2.69-4.47,9.68-13.24,6.29-24.87c-2.39-8.18-9.88-3.4-11.87,1.44
		c-1.99,4.84-4.28,9.79-3.19,16.43C176.46,161.06,181.51,165.29,181.51,165.29z"/>
	<path class="st1" d="M171.34,156.08c2.64-6.85,3.47-20.56,1.68-27.57s-9.82-12.17-11.4-1.63c-0.96,6.43,0.68,17.73,2.91,21.96
		C166.76,153.08,171.34,156.08,171.34,156.08z"/>
	<path class="st1" d="M155.33,147.44c-7.47-5.23-21.18-26.09-23.82-34.97c-2.64-8.88,0.68-19.37,13.69-6.14
		c13.02,13.22,18.93,37.72,19.72,45.82C160.88,149.65,155.33,147.44,155.33,147.44z"/>
	<path class="st1" d="M153.45,156.89c-3.81-1.88-33.42-19.64-39.39-32.13c-5.44-11.38-0.56-18.9,8.86-12.43s31.32,34.11,34.13,38.56
		C153.87,152.93,153.45,156.89,153.45,156.89z"/>
	<path class="st1" d="M157.11,163.75c-5-1.47-24.47-3.16-29.18-4.93c-12.01-4.5-22.51-18.3-6.35-17.2
		c3.77,0.26,29.71,11.63,34.08,15.2C155.27,160.57,157.11,163.75,157.11,163.75z"/>
	<path class="st1" d="M170.26,186.53c-0.59,1.42-12.02,32.88-7.07,52.38c3.79,14.95,13.13,13.53,16.95,5.32
		c3.97-8.53,6.19-33.93-2.46-52.04C173.89,188.69,170.26,186.53,170.26,186.53z"/>
	
		<ellipse transform="matrix(0.8417 -0.5399 0.5399 0.8417 -64.6015 118.8884)" class="st2" cx="170.48" cy="169.63" rx="12.62" ry="30.01"/>
	<path class="st3" d="M134.57,195.54"/>
</g>
<g>
	<path class="st4" d="M163.88,273.04c-1.95,2.45-3.35,5.29-4.68,8.12c-1.25,2.87-2.4,5.79-3.34,8.78c-0.48,1.49-0.97,2.98-1.34,4.5
		c-0.4,1.51-0.83,3.02-1.15,4.56c-0.72,3.05-1.24,6.14-1.75,9.24c-0.91,6.2-1.31,12.47-1.26,18.73l0.13,4.69
		c0.1,1.56,0.24,3.12,0.37,4.67l0.22,2.33l0.33,2.32c0.23,1.54,0.48,3.08,0.75,4.62c0.01-1.56,0-3.12-0.03-4.67l-0.05-2.32
		l0.05-2.33c0.03-1.55,0.01-3.09,0.06-4.64l0.2-4.63c0.04-1.54,0.21-3.08,0.3-4.62c0.11-1.54,0.2-3.08,0.4-4.6
		c0.18-1.53,0.29-3.07,0.48-4.59l0.63-4.57c0.45-3.04,0.95-6.08,1.58-9.1c0.26-1.52,0.62-3.02,0.96-4.52c0.32-1.51,0.71-3,1.08-4.49
		c0.75-2.99,1.62-5.95,2.57-8.89C161.38,278.7,162.42,275.79,163.88,273.04z"/>
	<path class="st5" d="M160.93,231.72c-1.23-2.17-6.29-7.21-6.73,0.2c-0.44,7.41,3.61,8.24,3.61,8.24l6.47-2.83L160.93,231.72z"/>
	<path class="st5" d="M174.18,236.78c-0.49-2.3-3.6-6.53-5.92-2.32c-2.32,4.21,2.23,8,2.23,8l3.45-0.97L174.18,236.78z"/>
	<path class="st5" d="M180.23,242.03c2.16-0.18,3.61-0.62,4.32,3.54c0.72,4.16-5.39,0.26-5.39,0.26L180.23,242.03z"/>
	<path class="st5" d="M187.11,251.61c5.5-2.37,8.35,0.37,5.27,4.62c-3.08,4.24-6.61-2.96-6.61-2.96L187.11,251.61z"/>
	<path class="st5" d="M196.26,259.94c2.83,0.37,15.48,5.25,5.28,9.67s-10.83-4.81-10.83-4.81L196.26,259.94z"/>
	<path class="st5" d="M203.76,278.66c10.43,3.07,11.63,13.91-1.19,8.59l-12.42-11.87l4.18-2.81L203.76,278.66z"/>
	<path class="st5" d="M199.86,294.76c7.46,16.25-5.29,15.77-8.95,7.25c-2.79-6.5-4.12-15.68-4.12-15.68L199.86,294.76z"/>
	<path class="st5" d="M178.84,295.51c-1.46,15.87-11.24,6.12-10.2-2.82c0.71-6.15,5.05-27.73,5.05-27.73l4.1,2.25L178.84,295.51z"/>
	<path class="st5" d="M157.17,288.57c-5.44,7.7-15.64-1.79-8.92-8.66c4.23-4.32,20.75-17.85,20.75-17.85l2.15,3.06L157.17,288.57z"
		/>
	<path class="st5" d="M136.81,223.86c-2.15-0.3-9.76-1.37-5.33,7.77c4.43,9.15,14.14,10.24,14.09,9.96
		c-0.05-0.28,2.87-6.02,2.87-6.02L136.81,223.86z"/>
	<path class="st5" d="M137.47,243.18c-10.92-2.6-14.99,1.43-4.63,8.51s17.89,1.02,17.89,1.02s-1.11-6.48-1.42-6.61
		C148.99,245.97,137.47,243.18,137.47,243.18z"/>
	<path class="st5" d="M137.03,257.29c-8.52,1.75-8.19,7.61,1.52,11.08c7.9-2.52,25.75-10.34,25.75-10.34l-1.37-3.45L137.03,257.29z"
		/>
	<path class="st5" d="M161.16,258.29c-15.43,3.27-23.19,6.55-27.29,11.06c-4.7,5.16-0.17,16.18,12.24,11.56
		c12.41-4.62,20.86-15.07,21.78-16.94S161.16,258.29,161.16,258.29z"/>
	<path class="st5" d="M169.33,266c-1.62,1.66-14.44,12.02-12.21,26.49c0.92,5.99,8.36,7.9,13.64,1.58
		c5.51-6.59,3.59-24.8,2.86-25.95C172.89,266.98,169.33,266,169.33,266z"/>
	<path class="st5" d="M181.68,273.11c1.06,1.83,9.75,19.14,16.15,24.27c6.76,5.41,17.62,6.87,12.44-4.15
		c-1.34-2.85-18.86-19.67-21.11-22.25C186.92,268.39,181.68,273.11,181.68,273.11z"/>
	<path class="st5" d="M188.39,269.52c2.58,3.91,10.86,10.75,18.47,10.61c7.61-0.14,3.23-6.77,2.4-7.62
		c-3.35-3.45-15.39-8.7-21.35-8.85C187.29,266.84,188.39,269.52,188.39,269.52z"/>
	<path class="st5" d="M187.72,264.43c2.28-0.29,9.1-0.72,11.56-4.32c1.7-2.49-0.19-7.29-4.3-7.11s-7.19,1.34-10.25,5.79
		C186.01,262.5,187.72,264.43,187.72,264.43z"/>
	<path class="st5" d="M179.03,254.58c0.76-2.36,2.48-8.38,4.66-10.56c2.17-2.18,5.94,0.11,6.29,3.9c0.49,5.32-3.45,8.33-6.49,10.98
		C181.42,257.35,179.03,254.58,179.03,254.58z"/>
	<path class="st5" d="M179.92,253.58c0.98-3.56,4.07-10.88-0.47-18.16c-3.19-5.12-7.39-0.43-7.82,3.25
		c-0.43,3.68-1.05,7.5,0.97,11.82C175.67,251.66,179.92,253.58,179.92,253.58z"/>
	<path class="st5" d="M171.22,249.24c0.49-5.17-1.57-14.68-4.13-19.12c-2.57-4.44-9.03-6.42-8.09,1.07
		c0.57,4.57,3.86,11.96,6.19,14.42C167.52,248.07,171.22,249.24,171.22,249.24z"/>
	<path class="st5" d="M158.64,246.41c-6.09-2.13-19.44-13.74-22.93-19.29c-3.5-5.55-3.25-13.34,8.16-6.81
		c11.41,6.52,20.13,22.1,22.22,27.47C162.86,246.86,158.64,246.41,158.64,246.41z"/>
	<path class="st5" d="M159.18,253.22c-2.96-0.55-26.55-7-33.01-14.37c-5.89-6.72-4-12.78,3.66-10.17s27.89,17.27,30.65,19.76
		C158.7,250.44,159.18,253.22,159.18,253.22z"/>
	<path class="st5" d="M162.98,257.19c-3.69-0.04-17.29,2.53-20.84,2.22c-9.05-0.77-18.85-8.17-7.62-10.51
		c2.62-0.55,22.48,2.24,26.15,3.84C161.12,255.38,162.98,257.19,162.98,257.19z"/>
	<path class="st5" d="M176.31,270.21c-0.13,1.08-1.9,24.72,5.2,37.08c5.45,9.47,11.55,6.71,12.58,0.38
		c1.07-6.58-2.27-24.32-11.64-35.02C179.2,270.99,176.31,270.21,176.31,270.21z"/>
	
		<ellipse transform="matrix(0.6645 -0.7473 0.7473 0.6645 -135.1672 216.2262)" class="st6" cx="173.22" cy="258.65" rx="8.94" ry="21.26"/>
	<path class="st7" d="M153.7,283.19"/>
</g>
<g>
	<path class="st8" d="M66.98,282.9c-3.96,4.02-7,8.87-9.91,13.7c-2.77,4.91-5.38,9.94-7.62,15.13c-1.14,2.58-2.29,5.17-3.25,7.82
		c-1.01,2.64-2.04,5.27-2.92,7.96c-1.86,5.34-3.37,10.79-4.86,16.23c-2.79,10.95-4.67,22.12-5.76,33.35l-0.65,8.43
		c-0.12,2.82-0.14,5.64-0.21,8.45l-0.04,4.22l0.17,4.22c0.13,2.81,0.29,5.62,0.48,8.42c0.31-2.8,0.59-5.59,0.83-8.38l0.35-4.18
		l0.52-4.16c0.34-2.77,0.6-5.55,0.98-8.31l1.22-8.26c0.35-2.76,0.95-5.48,1.4-8.22c0.49-2.74,0.93-5.48,1.57-8.18
		c0.6-2.71,1.1-5.44,1.71-8.15l1.99-8.09c1.38-5.37,2.85-10.73,4.53-16.02c0.75-2.67,1.67-5.29,2.56-7.92
		c0.86-2.64,1.83-5.24,2.77-7.86c1.91-5.22,4.02-10.36,6.27-15.45C61.43,292.58,63.84,287.56,66.98,282.9z"/>
	<path class="st9" d="M69.39,208.26c-1.8-4.12-9.93-14.1-12.1-0.89c-2.17,13.21,4.93,15.45,4.93,15.45l12.13-3.86L69.39,208.26z"/>
	<path class="st9" d="M92.21,219.81c-0.45-4.21-5.23-12.37-10.19-5.26c-4.95,7.11,2.51,14.76,2.51,14.76l6.37-1.1L92.21,219.81z"/>
	<path class="st9" d="M102.07,230.35c3.91,0.08,6.59-0.44,7.09,7.16s-9.7-0.54-9.7-0.54L102.07,230.35z"/>
	<path class="st9" d="M112.63,248.81c10.3-3.23,14.91,2.23,8.59,9.27s-11.29-6.54-11.29-6.54L112.63,248.81z"/>
	<path class="st9" d="M127.48,265.46c5,1.19,26.77,12.3,7.67,18.32c-19.11,6.02-18.52-10.64-18.52-10.64L127.48,265.46z"/>
	<path class="st9" d="M137.44,300.42c18.14,7.44,18.26,27.11-3.74,15.18L113.64,292l8.03-4.27L137.44,300.42z"/>
	<path class="st9" d="M127.44,328.57c10.34,30.52-12.43,27.29-17.4,11.34c-3.79-12.17-4.47-28.88-4.47-28.88L127.44,328.57z"/>
	<path class="st9" d="M89.61,326c-5.59,28.19-21.29,8.88-17.77-6.96c2.43-10.9,14.22-48.78,14.22-48.78l6.93,4.8L89.61,326z"/>
	<path class="st9" d="M52.04,309.5c-11.19,12.79-27.72-6.13-14.38-17.19c8.38-6.95,40.53-28.14,40.53-28.14l3.28,5.89L52.04,309.5z"
		/>
	<path class="st9" d="M27.61,189.67c-3.79-0.93-17.25-4.28-11.01,12.95s23.45,21,23.42,20.49c-0.03-0.51,6.27-10.26,6.27-10.26
		L27.61,189.67z"/>
	<path class="st9" d="M25.18,224.44c-19.1-6.7-27.16-0.23-9.9,14.4c17.26,14.63,31.89,5.17,31.89,5.17s-0.79-11.82-1.32-12.13
		C45.33,231.58,25.18,224.44,25.18,224.44z"/>
	<path class="st9" d="M21.76,249.65c-15.6,1.56-16.11,12.12,0.65,20.15c14.64-3.05,48.1-13.73,48.1-13.73l-1.81-6.44L21.76,249.65z"
		/>
	<path class="st9" d="M64.86,255.94c-28.28,2.99-42.8,7.43-51,14.73c-9.4,8.37-3.32,28.98,19.78,23.02
		c23.11-5.96,40.21-23.14,42.21-26.31C77.85,264.2,64.86,255.94,64.86,255.94z"/>
	<path class="st9" d="M78.06,271.3c-3.22,2.67-28.13,18.86-26.83,45.23c0.54,10.92,13.51,15.72,24.16,5.38
		c11.11-10.8,11.06-43.8,9.97-45.99C84.26,273.72,78.06,271.3,78.06,271.3z"/>
	<path class="st9" d="M98.89,286.35c1.55,3.49,13.91,36.14,24.44,46.53c11.12,10.97,30.31,15.6,23.08-5.12
		c-1.87-5.35-30.16-38.79-33.7-43.84C109.15,278.86,98.89,286.35,98.89,286.35z"/>
	<path class="st9" d="M111.57,281.16c3.9,7.48,17.47,21.31,31.15,22.48s7.06-11.54,5.73-13.22c-5.36-6.82-25.97-18.48-36.64-19.85
		C110.11,276.16,111.57,281.16,111.57,281.16z"/>
	<path class="st9" d="M111.34,271.92c4.15-0.09,16.46,0.42,21.54-5.59c3.51-4.15,1.02-13.1-6.38-13.55s-13.15,1.06-19.46,8.47
		C108.63,268.13,111.34,271.92,111.34,271.92z"/>
	<path class="st9" d="M97.59,252.63c1.81-4.09,6.02-14.57,10.32-18.06c4.3-3.5,10.63,1.31,10.55,8.17
		c-0.11,9.64-7.74,14.3-13.69,18.48C101.35,258.04,97.59,252.63,97.59,252.63z"/>
	<path class="st9" d="M99.37,251c2.42-6.2,9.33-18.75,2.55-32.65c-4.77-9.78-13.17-2.14-14.63,4.37
		c-1.45,6.52-3.27,13.25-0.47,21.37C92.1,246.76,99.37,251,99.37,251z"/>
	<path class="st9" d="M84.58,241.59c1.84-9.19-0.07-26.63-3.84-35.06c-3.77-8.44-14.99-13.2-14.7,0.41
		c0.17,8.3,4.69,22.16,8.41,27.01S84.58,241.59,84.58,241.59z"/>
	<path class="st9" d="M62.55,234.18c-10.53-4.97-32.29-28.26-37.53-38.86c-5.24-10.61-3.33-24.52,15.91-10.69
		c19.24,13.83,31.97,43.39,34.72,53.4C70.02,235.76,62.55,234.18,62.55,234.18z"/>
	<path class="st9" d="M62.24,246.48c-5.2-1.54-46.3-17.5-56.52-31.93c-9.3-13.14-4.79-23.67,8.46-17.56
		c13.25,6.11,46.79,36.17,51.28,41.16C61.9,241.4,62.24,246.48,62.24,246.48z"/>
	<path class="st9" d="M68.33,254.32c-6.61-0.77-31.48,1.31-37.79,0.1c-16.08-3.07-32.28-18.17-11.71-20.28
		c4.8-0.49,39.9,8.22,46.18,11.77C65.32,250.72,68.33,254.32,68.33,254.32z"/>
	<path class="st9" d="M89.79,280.15c-0.44,1.92-8.03,43.97,2.41,67.45c8,18,19.45,14.19,22.49,3.04
		c3.16-11.6,0.47-44.04-14.33-64.96C94.83,282.08,89.79,280.15,89.79,280.15z"/>
	
		<ellipse transform="matrix(0.7383 -0.6745 0.6745 0.7383 -151.9688 126.0309)" class="st10" cx="86.41" cy="258.84" rx="16.11" ry="38.32"/>
	<path class="st11" d="M46.82,299.2"/>
</g>
<g>
	<path class="st12" d="M37.56,141.98c-5.29,4.7-9.48,10.5-13.52,16.29c-3.88,5.91-7.56,11.97-10.78,18.27
		c-1.64,3.13-3.3,6.27-4.71,9.51c-1.48,3.21-2.99,6.42-4.31,9.7c-2.77,6.52-5.11,13.2-7.43,19.88c-4.4,13.45-7.68,27.26-9.97,41.2
		l-1.51,10.48c-0.38,3.51-0.65,7.03-0.97,10.54l-0.4,5.27l-0.14,5.29c-0.08,3.52-0.11,7.05-0.1,10.56c0.62-3.47,1.2-6.94,1.73-10.4
		l0.79-5.19l1-5.16c0.65-3.44,1.21-6.88,1.91-10.3l2.22-10.22c0.67-3.42,1.65-6.77,2.43-10.16c0.84-3.38,1.61-6.77,2.64-10.1
		c0.98-3.34,1.82-6.71,2.82-10.04l3.16-9.94c2.17-6.6,4.45-13.17,6.99-19.64c1.16-3.28,2.52-6.48,3.85-9.69
		c1.3-3.23,2.72-6.4,4.12-9.59c2.82-6.36,5.88-12.62,9.12-18.79C29.82,153.62,33.25,147.54,37.56,141.98z"/>
	<path class="st13" d="M46.79,48.91c-1.91-5.3-11.23-18.44-15.05-2.12s4.88,19.71,4.88,19.71l15.47-3.82L46.79,48.91z"/>
	<path class="st13" d="M74.34,65.23c-0.21-5.3-5.51-15.9-12.29-7.42s1.91,18.65,1.91,18.65l8.06-0.85L74.34,65.23z"/>
	<path class="st13" d="M85.79,79.23c4.88,0.42,8.27,0,8.27,9.54s-12.08-1.48-12.08-1.48L85.79,79.23z"/>
	<path class="st13" d="M97.45,103.18c13.14-3.18,18.44,4.03,9.96,12.29s-13.57-9.11-13.57-9.11L97.45,103.18z"/>
	<path class="st13" d="M114.62,125.22c6.15,1.91,32.43,17.59,8.06,23.53c-24.38,5.94-22.26-14.84-22.26-14.84L114.62,125.22z"/>
	<path class="st13" d="M124.16,169.74c22.05,10.81,20.56,35.4-5.94,18.65l-23.11-31.16l10.39-4.66L124.16,169.74z"/>
	<path class="st13" d="M109.32,204.08c10.39,39-17.81,33.07-22.68,12.72c-3.72-15.52-3.18-36.46-3.18-36.46L109.32,204.08z"/>
	<path class="st13" d="M62.26,197.72c-9.33,34.76-27.34,9.33-21.62-10.17c3.94-13.42,21.83-59.78,21.83-59.78l8.27,6.57
		L62.26,197.72z"/>
	<path class="st13" d="M16.69,173.98c-15.05,15.05-34.13-9.96-16.53-22.68c11.05-7.99,52.99-31.8,52.99-31.8l3.6,7.63L16.69,173.98z
		"/>
	<path class="st13" d="M-3.88,22.2c-4.66-1.48-21.2-6.78-14.84,15.26S8.84,65.66,8.84,65.02s8.69-12.29,8.69-12.29L-3.88,22.2z"/>
	<path class="st13" d="M-9.81,65.45c-23.32-9.96-33.92-2.54-13.57,17.17s39.43,9.11,39.43,9.11s0-14.84-0.64-15.26
		S-9.81,65.45-9.81,65.45z"/>
	<path class="st13" d="M-16.18,96.67c-19.63,0.65-21.14,13.8-0.86,25.23c18.55-2.59,61.25-13.16,61.25-13.16l-1.73-8.2L-16.18,96.67
		z"/>
	<path class="st13" d="M37.15,108.11c-35.59,1.38-54.1,5.72-64.96,14.17c-12.44,9.68-6.57,35.94,22.81,30.41
		s52.18-25.57,54.94-29.37C52.7,119.52,37.15,108.11,37.15,108.11z"/>
	<path class="st13" d="M52.37,128.41c-4.25,3.07-36.72,21.23-37.29,54.28c-0.24,13.69,15.58,20.77,29.74,8.73
		c14.79-12.57,17.47-53.81,16.29-56.64S52.37,128.41,52.37,128.41z"/>
	<path class="st13" d="M77.15,148.94c1.65,4.48,14.37,46.32,26.67,60.18c12.98,14.63,36.58,22.02,29.27-4.48
		c-1.89-6.84-34.46-50.98-38.47-57.59C90.6,140.45,77.15,148.94,77.15,148.94z"/>
	<path class="st13" d="M93.44,143.51c4.25,9.68,20.06,28.09,37.05,30.68s9.78-13.83,8.26-16.05c-6.14-8.97-30.92-25.25-44.14-27.85
		C92.02,137.14,93.44,143.51,93.44,143.51z"/>
	<path class="st13" d="M93.91,131.95c5.19,0.24,20.53,1.89,27.38-5.19c4.73-4.89,2.36-16.29-6.84-17.47
		c-9.2-1.18-16.52,0.24-25.02,8.97C90.84,126.99,93.91,131.95,93.91,131.95z"/>
	<path class="st13" d="M78.33,106.69c2.6-4.96,8.73-17.7,14.4-21.71c5.66-4.01,13.18,2.53,12.51,11.09
		c-0.94,12.04-10.86,17.23-18.65,21.95C82.58,113.78,78.33,106.69,78.33,106.69z"/>
	<path class="st13" d="M80.69,104.81c3.54-7.55,13.22-22.66,5.9-40.6c-5.15-12.61-16.29-3.78-18.65,4.25
		c-2.36,8.02-5.19,16.29-2.36,26.67C71.96,98.91,80.69,104.81,80.69,104.81z"/>
	<path class="st13" d="M62.99,91.83c3.07-11.33,2.12-33.28-1.89-44.14c-4.01-10.86-17.64-17.74-18.41-0.71
		c-0.47,10.38,4.01,28.09,8.26,34.46S62.99,91.83,62.99,91.83z"/>
	<path class="st13" d="M36.08,80.73c-12.74-7.08-38-38-43.66-51.69S-9.7-1.87,13.19,17.01s36.35,56.88,38.94,69.63
		C45.29,83.33,36.08,80.73,36.08,80.73z"/>
	<path class="st13" d="M34.67,96.07c-6.37-2.36-56.41-25.73-67.97-44.61c-10.53-17.2-4.01-29.97,12.04-21.24s55.46,49.09,60.66,55.7
		C34.67,89.7,34.67,96.07,34.67,96.07z"/>
	<path class="st13" d="M41.62,106.37c-8.2-1.51-39.44-0.99-47.23-3.02c-19.84-5.18-38.83-25.39-12.94-26.31
		c6.04-0.22,49.18,13.59,56.72,18.55C38.17,101.63,41.62,106.37,41.62,106.37z"/>
	<path class="st13" d="M66.29,140.45c-0.71,2.36-13.69,54.28-2.6,84.49c8.51,23.16,23.13,19.35,27.85,5.66
		c4.91-14.23,4.25-54.99-12.51-82.37C72.43,143.28,66.29,140.45,66.29,140.45z"/>
	
		<ellipse transform="matrix(0.7814 -0.624 0.624 0.7814 -56.8824 64.654)" class="st14" cx="63.85" cy="113.53" rx="20.18" ry="48"/>
	<path class="st15" d="M11.02,160.67"/>
</g>
</svg>
