<?xml version="1.0" encoding="utf-8"?>
<!-- Generator: Adobe Illustrator 23.0.0, SVG Export Plug-In . SVG Version: 6.00 Build 0)  -->
<svg version="1.1" id="Calque_1" xmlns="http://www.w3.org/2000/svg" xmlns:xlink="http://www.w3.org/1999/xlink" x="0px" y="0px"
	 viewBox="0 0 1003.3 465.3" style="enable-background:new 0 0 1003.3 465.3;" xml:space="preserve">
<style type="text/css">
	.st0{fill:#F8D51C;stroke:#1D1D1B;stroke-width:2.9792;stroke-miterlimit:10;}
	.st1{fill:#1D1D1B;}
	.st2{fill:none;stroke:#1D1D1B;stroke-width:2.9792;stroke-linecap:round;stroke-linejoin:round;stroke-miterlimit:10;}
	.st3{fill:#ECECEC;stroke:#1D1D1B;stroke-width:2.9792;stroke-linecap:round;stroke-linejoin:round;stroke-miterlimit:10;}
	.st4{fill:#F8D51C;stroke:#1D1D1B;stroke-width:3.6079;stroke-miterlimit:10;}
	.st5{fill:none;stroke:#1D1D1B;stroke-width:3.6079;stroke-linecap:round;stroke-linejoin:round;stroke-miterlimit:10;}
	.st6{fill:#ECECEC;stroke:#1D1D1B;stroke-width:3.6079;stroke-linecap:round;stroke-linejoin:round;stroke-miterlimit:10;}
	.st7{fill:#F8D51C;stroke:#1D1D1B;stroke-width:2.306;stroke-miterlimit:10;}
	.st8{fill:none;stroke:#1D1D1B;stroke-width:2.306;stroke-linecap:round;stroke-linejoin:round;stroke-miterlimit:10;}
	.st9{fill:#ECECEC;stroke:#1D1D1B;stroke-width:2.306;stroke-linecap:round;stroke-linejoin:round;stroke-miterlimit:10;}
	.st10{fill:#F8D51C;stroke:#1D1D1B;stroke-width:2.9272;stroke-miterlimit:10;}
	.st11{fill:none;stroke:#1D1D1B;stroke-width:2.9272;stroke-linecap:round;stroke-linejoin:round;stroke-miterlimit:10;}
	.st12{fill:#ECECEC;stroke:#1D1D1B;stroke-width:2.9272;stroke-linecap:round;stroke-linejoin:round;stroke-miterlimit:10;}
	.st13{fill:#FEC04E;stroke:#000000;stroke-width:5;stroke-linecap:round;stroke-linejoin:round;stroke-miterlimit:10;}
</style>
<g>
	<path class="st0" d="M346.4,266.5c-3.9,5.6-13.2,13.1-18.8,9.2s-7-11.6-3.1-17.3c4-5.6,10.7-5.8,16.3-1.8
		C346.5,260.6,350.3,260.9,346.4,266.5z"/>
	<circle class="st1" cx="334.2" cy="262.4" r="3.6"/>
	<path class="st2" d="M337.6,253.7c3.6-9.2,5.2-12.8,15.8-11.4"/>
	<path class="st2" d="M335.6,253.6c-0.7-9.8-0.7-13.8,9.5-17"/>
	<path class="st0" d="M323.4,270.8c3.8,8.5-3.6,19.2-16.2,24.9c-12.6,5.6-26.3,3.6-32.5-3.1c-1.1-10,6.8-20.6,19.3-26.3
		S319.6,262.3,323.4,270.8z"/>
	<path class="st1" d="M315.7,290.6c-8.8-4.8-14.1-18.7-12.1-27.4c0.2-0.6,7.5,0.9,7.5,0.9c-2.1,5.4,2.7,17.9,9.1,20.3
		C320,284.5,316.2,290.9,315.7,290.6z"/>
	<path class="st1" d="M304.1,297.7c-4.5-2.6-8.4-7.4-11.1-13.6c-2.4-5.7-3.3-11.6-2.5-16.3c0.2-1.1,9.1-3.8,9.1-3.8l-1.3,3.5
		c-1.2,3.2-0.7,8.6,1.6,13.6c2.3,5.4,5.8,9.4,9.3,10.7l2.2,0.9C311.5,292.8,304.9,298.2,304.1,297.7z"/>
	<path class="st1" d="M288,269.8l-1.3,3.5c-1,2.6-0.2,7.9,1.9,12.9c2.2,5.2,5.5,9.3,8.5,10.4l3.5,1.3c0,0-10.7,3.1-12.6,1.2
		c-3.2-3.5-5.4-7.8-6.3-10c-1.7-4-2.6-7.8-2.9-11.4L288,269.8z"/>
	<path class="st2" d="M291.2,299.3c0.7,4.3-3.4,8.3-4.8,9.1"/>
	<path class="st2" d="M304.4,296.7c2.4,3.6,0.3,8.9-0.6,10.2"/>
	<path class="st2" d="M306.6,294.9c3.5,2.6,3.2,8.3,2.8,9.9"/>
	<path class="st2" d="M289.1,299.1c-1.7,4-7.2,5.3-8.8,5.3"/>
	<path class="st2" d="M317.6,288.8c4,1.8,5.8,6,2.9,10.8"/>
	<path class="st2" d="M318.9,286.5c4.2-1.2,8.3,1,9.1,6.5"/>
	<path class="st3" d="M303.2,235.2c8.2,9.2,8.2,27.4,8.2,27.4s-18.2-1.9-26.3-11c-8.2-9.2-8.4-17.5-3.4-22
		C286.6,225.1,294.9,226.1,303.2,235.2z"/>
	<path class="st3" d="M292.6,239.4c11.4,5.3,18.6,22.5,18.6,22.5s-17.8,5.5-29.2,0.2c-11.4-5.3-14.9-13.1-12-19.4
		C273,236.4,281.2,234.1,292.6,239.4z"/>
</g>
<g>
	<path class="st4" d="M30.3,142.2c5.1,6.5,16.8,15.1,23.3,10s7.7-14.5,2.6-21c-5.1-6.5-13.4-6.3-19.9-1.2
		C29.8,135.1,25.3,135.7,30.3,142.2z"/>
	<circle class="st1" cx="44.8" cy="136.5" r="4.3"/>
	<path class="st5" d="M40.1,126c-4.8-10.9-7.1-15.1-19.7-12.8"/>
	<path class="st5" d="M42.6,125.8c0.2-11.9,0-16.7-12.5-20"/>
	<path class="st4" d="M58.4,146c-4,10.5,5.6,23,21.1,29c15.6,6,32.1,2.7,39.1-5.9c0.7-12.1-9.5-24.6-25-30.6
		C78,132.6,62.5,135.4,58.4,146z"/>
	<path class="st1" d="M69,169.4c10.3-6.3,15.9-23.5,13-33.9c-0.2-0.7-9,1.6-9,1.6c2.9,6.5-2.2,21.8-9.7,25.2
		C63.3,162.2,68.4,169.8,69,169.4z"/>
	<path class="st1" d="M83.4,177.2c5.3-3.4,9.7-9.5,12.5-17.1c2.6-7.1,3.3-14.2,1.9-19.9c-0.3-1.3-11.2-4-11.2-4l1.8,4.1
		c1.7,3.8,1.3,10.3-1,16.6c-2.4,6.6-6.4,11.7-10.6,13.6l-2.7,1.2C74.1,171.7,82.5,177.8,83.4,177.2z"/>
	<path class="st1" d="M101.2,142.5l1.8,4.1c1.4,3.1,0.8,9.6-1.5,15.7c-2.4,6.4-6.1,11.6-9.6,13.1l-4.1,1.8c0,0,13.2,3,15.2,0.6
		c3.7-4.4,6-9.7,7-12.4c1.8-4.9,2.7-9.7,2.8-13.9L101.2,142.5z"/>
	<path class="st5" d="M99.2,178.3c-0.6,5.2,4.6,9.8,6.3,10.7"/>
	<path class="st5" d="M83.1,176c-2.7,4.5,0.2,10.8,1.4,12.4"/>
	<path class="st5" d="M80.3,174c-4,3.4-3.3,10.2-2.7,12.2"/>
	<path class="st5" d="M101.8,178c2.2,4.8,9,5.9,11,5.9"/>
	<path class="st5" d="M66.6,167.4c-4.7,2.4-6.6,7.7-2.8,13.2"/>
	<path class="st5" d="M64.9,164.7c-5.1-1.1-10,1.7-10.6,8.4"/>
	<path class="st6" d="M80.7,101.6c-9.4,11.6-8.1,33.6-8.1,33.6s21.9-3.4,31.2-14.9s9-21.7,2.7-26.9C100.1,88.3,90.1,90.1,80.7,101.6
		z"/>
	<path class="st6" d="M93.7,106c-13.4,7.1-21.1,28.4-21.1,28.4s21.9,5.6,35.4-1.6c13.5-7.2,17.2-16.8,13.3-24.3
		C117.3,101.2,107.1,98.9,93.7,106z"/>
</g>
<g>
	<path class="st7" d="M143.3,375c-5.3,0.6-14.4-1-15-6.2c-0.6-5.3,3.2-10,8.5-10.6s8.9,3.3,9.4,8.6
		C146.8,372.1,148.6,374.5,143.3,375z"/>
	<circle class="st1" cx="139.5" cy="365.9" r="2.8"/>
	<path class="st8" d="M146.4,363.4c7.1-2.6,10.1-3.5,14.7,3.3"/>
	<path class="st8" d="M145.3,362.1c5.4-5.4,7.7-7.4,14.7-3.2"/>
	<path class="st7" d="M129.1,363.9c-3,6.6-13.1,7.7-22.7,3.3c-9.7-4.4-15.5-13.5-14.8-20.5c5.2-5.7,15.5-6.6,25.2-2.2
		S132.1,357.3,129.1,363.9z"/>
	<path class="st1" d="M113.6,369.4c-1.7-7.5,3.7-17.8,9.7-21.1c0.4-0.2,3.3,4.8,3.3,4.8c-4.2,1.6-9,10.7-7.2,15.7
		C119.5,368.9,113.7,369.9,113.6,369.4z"/>
	<path class="st1" d="M103.6,366.3c-0.8-3.9,0-8.7,2.3-13.4c2.1-4.3,5.1-7.8,8.2-9.7c0.7-0.4,6.8,3.4,6.8,3.4l-2.7,1
		c-2.5,0.9-5.3,4-7.2,7.9c-2,4.1-2.5,8.2-1.5,10.9l0.7,1.8C110.3,368.2,103.8,367.1,103.6,366.3z"/>
	<path class="st1" d="M111.6,342.7l-2.7,1c-2,0.8-4.7,3.9-6.5,7.7c-1.9,4-2.6,8-1.7,10.3l1,2.7c0,0-7.2-4.7-7.1-6.7
		c0.4-3.7,1.8-7,2.6-8.7c1.4-3,3.2-5.6,5.1-7.5L111.6,342.7z"/>
	<path class="st8" d="M96.1,359.7c-2.1,2.6-6.5,2.3-7.7,1.9"/>
	<path class="st8" d="M104.3,366c-0.9,3.3-5,4.7-6.3,4.9"/>
	<path class="st8" d="M106.5,366.4c0.2,3.4-3.2,6.1-4.3,6.7"/>
	<path class="st8" d="M95.1,358.3c-3.2,1.1-6.7-1.5-7.6-2.4"/>
	<path class="st8" d="M115.6,369.7c1,3.2-0.6,6.4-4.8,7.2"/>
	<path class="st8" d="M117.6,369.2c2.8,1.8,3.6,5.3,0.9,8.6"/>
	<path class="st9" d="M139.4,333.9c-1.1,9.4-11.8,18.7-11.8,18.7s-8.2-11.5-7.1-21c1.1-9.4,5.9-13.8,11.1-13.2
		C136.9,319.1,140.6,324.5,139.4,333.9z"/>
	<path class="st9" d="M131.7,329.9c2.7,9.3-3.6,22.3-3.6,22.3s-12.3-7.6-15.1-16.9s0-15.4,5.2-16.9
		C123.3,316.9,128.9,320.6,131.7,329.9z"/>
</g>
<g>
	<path class="st10" d="M728.7,198.1c5.4,4,16.4,8.2,20.4,2.9c4-5.4,3-13-2.4-17s-11.8-2.1-15.9,3.3
		C726.8,192.6,723.3,194.1,728.7,198.1z"/>
	<circle class="st1" cx="738.8" cy="190.5" r="3.5"/>
	<path class="st11" d="M732.9,183.4c-6.1-7.5-8.7-10.3-18.2-5.8"/>
	<path class="st11" d="M734.8,182.7c-2.4-9.4-3.6-13.1-14-13"/>
	<path class="st10" d="M751.5,195.1c-0.9,9.1,9.3,16.9,22.7,18.3c13.5,1.4,25.7-4.7,29.4-12.9c-2-9.7-12.7-17.2-26.1-18.6
		S752.4,186,751.5,195.1z"/>
	<path class="st1" d="M764.8,211.1c6.7-7.1,7.5-21.8,3-29.3c-0.3-0.5-6.7,3.1-6.7,3.1c3.6,4.5,2.9,17.5-2.2,21.8
		C758.8,206.7,764.3,211.6,764.8,211.1z"/>
	<path class="st1" d="M777.7,214.2c3.4-3.8,5.6-9.5,6.1-16.1c0.5-6.1-0.5-11.8-2.7-16c-0.5-0.9-9.6-0.7-9.6-0.7l2.3,2.8
		c2.1,2.6,3.2,7.8,2.7,13.2c-0.5,5.7-2.5,10.5-5.4,12.9l-1.8,1.5C769.3,211.9,777.1,214.9,777.7,214.2z"/>
	<path class="st1" d="M784.2,183.3l2.3,2.8c1.7,2.1,2.6,7.3,2.2,12.6c-0.5,5.5-2.3,10.4-4.7,12.3l-2.8,2.3c0,0,11-0.5,12-2.8
		c2-4.2,2.6-8.8,2.8-11.2c0.4-4.2,0.1-8.2-0.8-11.5L784.2,183.3z"/>
	<path class="st11" d="M790.3,211.7c0.6,4.2,5.7,6.7,7.2,7.1"/>
	<path class="st11" d="M777.2,213.3c-1.2,4.1,2.4,8.4,3.7,9.4"/>
	<path class="st11" d="M774.6,212.4c-2.4,3.5-0.4,8.7,0.4,10.1"/>
	<path class="st11" d="M792.2,210.9c2.7,3.3,8.3,2.7,9.9,2.2"/>
	<path class="st11" d="M762.5,210.1c-3.2,2.9-3.5,7.4,0.6,11"/>
	<path class="st11" d="M760.6,208.3c-4.3,0.2-7.4,3.5-6.5,8.8"/>
	<path class="st12" d="M759.5,155.6c-4.9,11,0.8,28.1,0.8,28.1s16.4-7.3,21.3-18.3c4.9-11,2.5-18.9-3.6-21.6
		C771.8,141,764.4,144.6,759.5,155.6z"/>
	<path class="st12" d="M770.6,156.3c-9,8.4-10.5,26.7-10.5,26.7s18.4-0.3,27.3-8.8c9-8.4,9.9-16.9,5.2-21.8
		C788,147.5,779.6,147.8,770.6,156.3z"/>
</g>
<g>
	<path class="st4" d="M841.4,385.9c-6.6,5-20.2,10.1-25.1,3.5c-5-6.6-3.6-16,3-21s14.6-2.6,19.5,4.1S848,380.9,841.4,385.9z"/>
	<circle class="st1" cx="828.9" cy="376.5" r="4.3"/>
	<path class="st5" d="M836.2,367.7c7.5-9.2,10.8-12.7,22.4-7.2"/>
	<path class="st5" d="M833.8,366.8c2.9-11.5,4.4-16.1,17.3-16"/>
	<path class="st4" d="M813.3,382.1c1.2,11.2-11.4,20.8-28,22.5s-31.6-5.8-36.2-15.9c2.5-11.9,15.6-21.2,32.2-22.9
		C797.9,364.1,812.1,370.9,813.3,382.1z"/>
	<path class="st1" d="M796.9,401.9c-8.3-8.8-9.2-26.8-3.7-36.1c0.4-0.7,8.3,3.9,8.3,3.9c-4.5,5.5-3.6,21.6,2.8,26.8
		C804.3,396.5,797.4,402.5,796.9,401.9z"/>
	<path class="st1" d="M781,405.7c-4.2-4.7-6.9-11.7-7.6-19.8c-0.6-7.5,0.6-14.6,3.3-19.7c0.6-1.1,11.9-0.9,11.9-0.9l-2.8,3.5
		c-2.6,3.2-4,9.6-3.4,16.3c0.6,7,3.1,13,6.7,15.9l2.3,1.9C791.4,402.8,781.7,406.5,781,405.7z"/>
	<path class="st1" d="M772.9,367.6l-2.8,3.5c-2.1,2.6-3.2,9-2.7,15.5c0.6,6.8,2.9,12.8,5.8,15.2l3.5,2.8c0,0-13.5-0.6-14.8-3.4
		c-2.4-5.2-3.2-10.9-3.5-13.8c-0.5-5.2-0.1-10.1,1-14.2L772.9,367.6z"/>
	<path class="st5" d="M765.5,402.6c-0.8,5.2-7,8.2-8.9,8.7"/>
	<path class="st5" d="M781.6,404.6c1.4,5.1-3,10.3-4.6,11.6"/>
	<path class="st5" d="M784.8,403.4c3,4.3,0.5,10.8-0.6,12.5"/>
	<path class="st5" d="M763.1,401.6c-3.4,4-10.2,3.4-12.2,2.8"/>
	<path class="st5" d="M799.7,400.6c3.9,3.6,4.3,9.1-0.8,13.5"/>
	<path class="st5" d="M802.1,398.4c5.3,0.3,9.2,4.3,8,10.9"/>
	<path class="st6" d="M803.4,333.5c6,13.6-1,34.6-1,34.6s-20.2-9-26.2-22.6s-3-23.4,4.5-26.7C788.2,315.5,797.4,319.9,803.4,333.5z"
		/>
	<path class="st6" d="M789.7,334.3c11.1,10.4,12.9,33,12.9,33s-22.6-0.4-33.7-10.8c-11.1-10.4-12.2-20.8-6.4-26.9
		C768.2,323.4,778.7,323.9,789.7,334.3z"/>
</g>
<g>
	<path class="st4" d="M965.5,126c-7.9,2.4-22.4,2.5-24.8-5.5c-2.4-7.9,2.2-16.3,10.1-18.6c7.9-2.4,14.6,2.7,16.9,10.6
		C970.1,120.4,973.4,123.6,965.5,126z"/>
	<circle class="st1" cx="957.1" cy="112.9" r="4.3"/>
	<path class="st5" d="M967,107.1c10.3-6,14.6-8.2,23.5,1.1"/>
	<path class="st5" d="M965,105.5c6.8-9.8,9.7-13.6,21.8-8.9"/>
	<path class="st4" d="M940.5,112.7c-2.8,10.9-18,15.5-34.1,11.3c-16.1-4.2-27.6-16.5-28.4-27.5c6.5-10.3,22-14.5,38.2-10.3
		C932.3,90.4,943.3,101.7,940.5,112.7z"/>
	<path class="st1" d="M918.2,125.5c-4.7-11.1,0.7-28.4,9.2-35.1c0.6-0.5,6.4,6.5,6.4,6.5c-6.1,3.6-10.9,19-6.8,26.1
		C927,123,918.5,126.2,918.2,125.5z"/>
	<path class="st1" d="M902,123.5c-2.3-5.9-2.4-13.4-0.2-21.2c2-7.2,5.6-13.4,10-17.3c1-0.8,11.4,3.3,11.4,3.3l-3.9,2.3
		c-3.6,2.1-7.1,7.6-8.9,14.1c-1.9,6.8-1.6,13.2,0.7,17.2l1.5,2.5C912.7,124.5,902.4,124.5,902,123.5z"/>
	<path class="st1" d="M907.7,85l-3.9,2.3c-2.9,1.7-6.2,7.3-7.9,13.6c-1.8,6.6-1.8,13,0.2,16.3l2.3,3.9c0,0-12.5-5.3-12.7-8.4
		c-0.5-5.7,0.8-11.3,1.6-14.2c1.4-5,3.4-9.5,5.9-12.9L907.7,85z"/>
	<path class="st5" d="M888.5,115.2c-2.6,4.6-9.4,5.3-11.4,5"/>
	<path class="st5" d="M902.9,122.7c-0.4,5.3-6.4,8.7-8.3,9.3"/>
	<path class="st5" d="M906.4,122.7c1.3,5.1-3.2,10.3-4.9,11.5"/>
	<path class="st5" d="M886.6,113.4c-4.6,2.6-10.8-0.4-12.4-1.6"/>
	<path class="st5" d="M921.3,125.3c2.4,4.7,0.9,10.1-5.4,12.4"/>
	<path class="st5" d="M924.3,124.1c4.8,2.1,7.1,7.2,3.7,13"/>
	<path class="st6" d="M948.2,63.7c0.9,14.8-13,32.1-13,32.1s-15.8-15.5-16.7-30.3s5.3-22.9,13.5-23.4
		C940.2,41.5,947.3,48.8,948.2,63.7z"/>
	<path class="st6" d="M935.1,59.7c6.8,13.6,0.6,35.4,0.6,35.4s-21.1-8.3-27.8-21.9s-4.2-23.7,3.3-27.4C918.7,42,928.3,46,935.1,59.7
		z"/>
</g>
<path class="st13" d="M682.9,258.3H320.2c-7.3,0-13.2-5.9-13.2-13.2v-22.7c0-7.3,5.9-13.2,13.2-13.2h362.6c7.3,0,13.2,5.9,13.2,13.2
	v22.7C696.1,252.4,690.2,258.3,682.9,258.3z"/>
<path class="st13" d="M659.5,307.5H343.6c-8.1,0-14.7-6.6-14.7-14.7V267c0-4.8,3.9-8.7,8.7-8.7h327.7c4.8,0,8.7,3.9,8.7,8.7v25.8
	C674.1,300.9,667.6,307.5,659.5,307.5z"/>
<path class="st13" d="M624.8,356.7H378.3c-11.8,0-21.3-9.6-21.3-21.3v-20.8c0-3.9,3.1-7,7-7h275.2c3.9,0,7,3.1,7,7v20.8
	C646.2,347.1,636.6,356.7,624.8,356.7z"/>
<path class="st13" d="M600.2,405.9H402.9c-11.4,0-20.7-9.3-20.7-20.7v-20.8c0-4.2,3.4-7.6,7.6-7.6h223.4c4.2,0,7.6,3.4,7.6,7.6v20.8
	C620.9,396.6,611.6,405.9,600.2,405.9z"/>
<path class="st13" d="M553.8,455.1H449.3c-12.7,0-22.9-10.3-22.9-22.9v-20.8c0-3,2.4-5.4,5.4-5.4h139.4c3,0,5.4,2.4,5.4,5.4v20.8
	C576.7,444.8,566.4,455.1,553.8,455.1z"/>
<path class="st13" d="M343.6,160h315.8c8.1,0,14.7,6.6,14.7,14.7v25.8c0,4.8-3.9,8.7-8.7,8.7H337.7c-4.8,0-8.7-3.9-8.7-8.7v-25.8
	C329,166.5,335.5,160,343.6,160z"/>
<path class="st13" d="M378.3,110.8h246.5c11.8,0,21.3,9.6,21.3,21.3V153c0,3.9-3.1,7-7,7H363.9c-3.9,0-7-3.1-7-7v-20.8
	C356.9,120.3,366.5,110.8,378.3,110.8z"/>
<path class="st13" d="M402.9,61.6h197.3c11.4,0,20.7,9.3,20.7,20.7v20.8c0,4.2-3.4,7.6-7.6,7.6H389.9c-4.2,0-7.6-3.4-7.6-7.6V82.3
	C382.2,70.9,391.5,61.6,402.9,61.6z"/>
<ellipse cx="537.9" cy="282.9" rx="44.4" ry="57.7"/>
<line class="st13" x1="502.6" y1="58.2" x2="502.6" y2="6.2"/>
</svg>
