<?xml version="1.0" encoding="utf-8"?>
<!-- Generator: Adobe Illustrator 23.0.0, SVG Export Plug-In . SVG Version: 6.00 Build 0)  -->
<svg version="1.1" id="Calque_1" xmlns="http://www.w3.org/2000/svg" xmlns:xlink="http://www.w3.org/1999/xlink" x="0px" y="0px"
	 viewBox="0 0 343.5 561.4" style="enable-background:new 0 0 343.5 561.4;" xml:space="preserve">
<style type="text/css">
	.st0{fill:#FEC04E;stroke:#000000;stroke-width:4.3637;stroke-linecap:round;stroke-linejoin:round;stroke-miterlimit:10;}
	.st1{fill:none;stroke:#000000;stroke-width:4.3637;stroke-linecap:round;stroke-linejoin:round;stroke-miterlimit:10;}
	.st2{fill:#F8D51C;stroke:#1D1D1B;stroke-width:2.1495;stroke-miterlimit:10;}
	.st3{fill:#1D1D1B;}
	.st4{fill:none;stroke:#1D1D1B;stroke-width:2.1495;stroke-linecap:round;stroke-linejoin:round;stroke-miterlimit:10;}
	.st5{fill:#ECECEC;stroke:#1D1D1B;stroke-width:2.1495;stroke-linecap:round;stroke-linejoin:round;stroke-miterlimit:10;}
</style>
<g>
	<path class="st0" d="M201.9,345h-316.5c-6.4,0-11.5-5.1-11.5-11.5v-19.8c0-6.4,5.1-11.5,11.5-11.5h316.5c6.4,0,11.5,5.1,11.5,11.5
		v19.8C213.4,339.9,208.2,345,201.9,345z"/>
	<path class="st0" d="M181.4,388H-94.3c-7.1,0-12.8-5.8-12.8-12.8v-22.5c0-4.2,3.4-7.6,7.6-7.6h286c4.2,0,7.6,3.4,7.6,7.6v22.5
		C194.2,382.2,188.5,388,181.4,388z"/>
	<path class="st0" d="M151.2,430.9H-64c-10.3,0-18.6-8.4-18.6-18.6v-18.2c0-3.4,2.7-6.1,6.1-6.1h240.2c3.4,0,6.1,2.7,6.1,6.1v18.2
		C169.8,422.5,161.5,430.9,151.2,430.9z"/>
	<path class="st0" d="M129.7,473.9H-42.5c-9.9,0-18.1-8.1-18.1-18.1v-18.2c0-3.7,3-6.6,6.6-6.6h195c3.7,0,6.6,3,6.6,6.6v18.2
		C147.8,465.7,139.6,473.9,129.7,473.9z"/>
	<path class="st0" d="M89.2,516.8H-2c-11.1,0-20-9-20-20v-18.2c0-2.6,2.1-4.7,4.7-4.7h121.7c2.6,0,4.7,2.1,4.7,4.7v18.2
		C109.2,507.8,100.2,516.8,89.2,516.8z"/>
	<path class="st0" d="M-94.3,259.3h275.6c7.1,0,12.8,5.8,12.8,12.8v22.5c0,4.2-3.4,7.6-7.6,7.6h-286c-4.2,0-7.6-3.4-7.6-7.6v-22.5
		C-107,264.9-101.3,259.3-94.3,259.3z"/>
	<path class="st0" d="M-64,216.3h215.1c10.3,0,18.6,8.4,18.6,18.6v18.2c0,3.4-2.7,6.1-6.1,6.1H-76.5c-3.4,0-6.1-2.7-6.1-6.1V235
		C-82.6,224.6-74.3,216.3-64,216.3z"/>
	<path class="st0" d="M-42.5,173.4h172.2c9.9,0,18.1,8.1,18.1,18.1v18.2c0,3.7-3,6.6-6.6,6.6h-195c-3.7,0-6.6-3-6.6-6.6v-18.2
		C-60.6,181.5-52.5,173.4-42.5,173.4z"/>
	<ellipse cx="75.3" cy="366.5" rx="38.7" ry="50.4"/>
	<line class="st1" x1="44.5" y1="170.4" x2="44.5" y2="-1.1"/>
</g>
<g>
	<g>
		<path class="st2" d="M329.5,494.2c-3.2,2.8-10,6-12.9,2.8s-2.5-8.1,0.8-11s7.4-1.9,10.3,1.4S332.8,491.4,329.5,494.2z"/>
		<circle class="st3" cx="322.7" cy="489.8" r="2.3"/>
		<path class="st4" d="M326.2,485c3.5-5.1,5.1-7,11.3-4.6"/>
		<path class="st4" d="M324.9,484.6c1.1-6.1,1.7-8.5,8.3-8.9"/>
		<path class="st2" d="M314.9,493.3c1,5.8-5.1,11.2-13.7,12.7c-8.5,1.5-16.6-1.8-19.3-6.9c0.8-6.2,7.3-11.6,15.8-13.1
			C306.2,484.5,313.9,487.5,314.9,493.3z"/>
		<path class="st3" d="M307.1,504.1c-4.6-4.2-5.8-13.5-3.2-18.5c0.2-0.4,4.4,1.7,4.4,1.7c-2.1,3-1.1,11.3,2.4,13.8
			C310.8,501.1,307.4,504.4,307.1,504.1z"/>
		<path class="st3" d="M299,506.7c-2.3-2.3-4-5.8-4.7-10c-0.6-3.9-0.2-7.6,1-10.3c0.3-0.6,6.1-0.9,6.1-0.9l-1.3,1.9
			c-1.2,1.8-1.7,5.1-1.1,8.6c0.6,3.6,2.1,6.6,4.1,8l1.2,0.9C304.3,504.8,299.5,507.1,299,506.7z"/>
		<path class="st3" d="M293.4,487.3l-1.3,1.9c-1,1.4-1.3,4.8-0.8,8.1c0.6,3.5,2,6.5,3.6,7.6l1.9,1.3c0,0-7,0.2-7.8-1.2
			c-1.5-2.6-2.1-5.5-2.3-7c-0.4-2.7-0.4-5.2,0-7.4L293.4,487.3z"/>
		<path class="st4" d="M290.9,505.7c-0.2,2.7-3.3,4.5-4.3,4.8"/>
		<path class="st4" d="M299.3,506.1c0.9,2.6-1.2,5.5-1.9,6.2"/>
		<path class="st4" d="M301,505.4c1.7,2.1,0.7,5.5,0.2,6.5"/>
		<path class="st4" d="M289.6,505.3c-1.6,2.2-5.2,2.1-6.2,1.9"/>
		<path class="st4" d="M308.6,503.4c2.1,1.7,2.6,4.6,0.1,7"/>
		<path class="st4" d="M309.7,502.2c2.7-0.1,4.9,1.9,4.6,5.3"/>
		<path class="st5" d="M307.9,468.5c3.6,6.8,0.8,17.9,0.8,17.9s-10.8-3.9-14.4-10.7c-3.6-6.8-2.4-12,1.3-14
			C299.4,459.8,304.3,461.7,307.9,468.5z"/>
		<path class="st5" d="M300.9,469.4c6.1,5,7.9,16.6,7.9,16.6s-11.7,0.6-17.8-4.3c-6.1-5-7.1-10.3-4.3-13.7S294.8,464.5,300.9,469.4z
			"/>
	</g>
	<g>
		<g>
			<path d="M70.6,359.1c0.1,14.7,1.4,29.7,6.7,43.6c5,13,13.5,23.3,24.4,31.9c11.5,9,24.6,16.2,35.3,26.2
				c11.2,10.5,19.6,23.9,24.4,38.5c2.5,7.4,4,15.1,4.6,22.9c0.5,7.7,0.8,16.8-3.3,23.6c-6.7,10.9-23.1,14.2-33.9,7.7
				c-12.2-7.4-13.8-24.5-7.2-36.1c8.4-14.9,27.8-16,42.8-13c9.5,1.9,18.5,5.2,27.9,7.5c8.9,2.2,17.9,3.1,27.1,2.7
				c19.4-0.8,38.1-6.6,56.5-12.3c1-0.3,0.6-1.9-0.4-1.6c-19.1,6-38.7,12-58.8,12.4c-10.6,0.2-20.9-1.7-31.1-4.6
				c-8.7-2.5-17.3-5.3-26.2-6.5c-13.1-1.7-28.5,0.3-37,11.5c-7,9.2-8.4,22.8-2.6,33c5.5,9.7,16.8,13.6,27.5,11.5
				c12.1-2.4,19.4-11.5,20.4-23.6c2.7-31.2-13-62.3-37.3-81.2c-14.9-11.5-32.5-20.3-43.6-36c-11.8-16.7-14.2-38-14.3-57.9
				C72.2,358,70.6,358,70.6,359.1L70.6,359.1z"/>
		</g>
	</g>
</g>
<g>
	<g>
		<path d="M81.1,352.4c46.2-7.9,74.9-49.7,89.3-91c4.3-12.3,7.6-25,10.7-37.6c2.1-8.8,5.8-19,2.6-28c-2-5.7-8.2-9.4-13.7-5.5
			c-5.5,4-5.9,12.4-2.1,17.6c6.8,9.3,21.6,11,32.1,12.4c14.4,2,28.9,1.6,43.1-0.9c1.3-0.2,0.7-2.2-0.5-1.9c-11.2,2-22.6,2.6-34,1.8
			c-10.3-0.8-22-2.1-31.5-6.6c-4.6-2.2-9.3-6-9.7-11.4c-0.4-4.9,3-11.6,8.9-10.4c8.8,1.9,6.6,15.9,5.2,22
			c-8.8,38.7-19.9,79.4-48.3,108.6c-14.3,14.7-32.3,25.6-52.7,29C79.3,350.7,79.8,352.6,81.1,352.4L81.1,352.4z"/>
	</g>
</g>
<g>
	<g>
		<path class="st2" d="M267.7,342.4c-1.9,3.8-7,9.4-10.8,7.5c-3.8-1.9-5.4-6.6-3.5-10.4s6.2-4.6,10-2.6
			C267.2,338.7,269.6,338.6,267.7,342.4z"/>
		<circle class="st3" cx="259.7" cy="341" r="2.3"/>
		<path class="st4" d="M261,335.2c1.3-6,2-8.4,8.7-8.5"/>
		<path class="st4" d="M259.7,335.4c-1.3-6-1.7-8.5,4.3-11.4"/>
		<path class="st2" d="M253.8,347.2c3.1,4.9-0.5,12.3-7.8,16.9s-16,4.6-20.5,1c-1.6-6.1,2.3-13.5,9.6-18.1
			C242.4,342.4,250.6,342.3,253.8,347.2z"/>
		<path class="st3" d="M250.7,360.2c-5.9-2.2-10.5-10.3-10.1-15.9c0-0.4,4.7-0.1,4.7-0.1c-0.8,3.6,3.3,10.9,7.5,11.8
			C252.9,356,251.1,360.3,250.7,360.2z"/>
		<path class="st3" d="M244.2,365.6c-3-1.2-5.9-3.8-8.1-7.4c-2-3.3-3.1-6.9-3-9.9c0-0.7,5.3-3.2,5.3-3.2l-0.5,2.3
			c-0.5,2.1,0.4,5.4,2.2,8.3c1.9,3.1,4.4,5.3,6.8,5.8l1.5,0.3C248.4,361.9,244.8,365.9,244.2,365.6z"/>
		<path class="st3" d="M231.7,349.8l-0.5,2.3c-0.4,1.7,0.6,4.9,2.4,7.8c1.9,3,4.3,5.3,6.2,5.7l2.3,0.5c0,0-6.4,2.9-7.7,1.8
			c-2.3-1.9-4-4.3-4.8-5.6c-1.4-2.3-2.4-4.7-2.8-6.8L231.7,349.8z"/>
		<path class="st4" d="M236.3,367.8c0.8,2.6-1.3,5.4-2.1,6.1"/>
		<path class="st4" d="M244.3,365c1.8,2,1,5.5,0.6,6.4"/>
		<path class="st4" d="M245.5,363.7c2.4,1.3,2.7,4.9,2.6,5.9"/>
		<path class="st4" d="M235,367.9c-0.6,2.7-4,3.9-5,4.1"/>
		<path class="st4" d="M251.8,358.9c2.6,0.7,4.1,3.2,2.8,6.4"/>
		<path class="st4" d="M252.4,357.4c2.5-1.1,5.2-0.1,6.2,3.2"/>
		<path class="st5" d="M237.9,326.9c5.9,4.9,7.6,16.3,7.6,16.3s-11.5,0.5-17.4-4.4s-6.8-10.1-4.1-13.4S232,322,237.9,326.9z"/>
		<path class="st5" d="M231.8,330.5c7.6,2.3,13.6,12.3,13.6,12.3s-10.6,5.1-18.1,2.8c-7.6-2.3-10.5-6.8-9.2-11
			C219.3,330.4,224.2,328.2,231.8,330.5z"/>
	</g>
	<g>
		<g>
			<path d="M104.2,370.1c9.8,2,19.1,5.3,28.8,7.7c8.9,2.2,17.9,3.1,27.1,2.7c19.4-0.8,38.1-6.6,56.5-12.3c1-0.3,0.6-1.9-0.4-1.6
				c-18.2,5.7-36.8,11.5-56,12.3c-9.7,0.4-19.1-0.7-28.5-3.1c-9-2.3-17.9-5.4-27-7.2C103.6,368.3,103.2,369.9,104.2,370.1
				L104.2,370.1z"/>
		</g>
	</g>
</g>
<g>
	<g>
		<path class="st2" d="M297.8,229.7c-4,1.5-11.5,2.2-13-1.8s0.5-8.5,4.5-10.1c4-1.5,7.6,0.8,9.2,4.8
			C300,226.6,301.8,228.1,297.8,229.7z"/>
		<circle class="st3" cx="292.9" cy="223.2" r="2.3"/>
		<path class="st4" d="M297.8,219.9c5.1-3.5,7.2-4.8,12.2-0.4"/>
		<path class="st4" d="M296.7,219.1c3.1-5.3,4.5-7.4,10.9-5.5"/>
		<path class="st2" d="M284.3,223.8c-1,5.8-8.7,8.8-17.2,7.3s-15-7.4-15.8-13.1c2.9-5.6,10.8-8.4,19.3-6.9
			C279.2,212.6,285.4,218.1,284.3,223.8z"/>
		<path class="st3" d="M273.4,231.4c-2.9-5.6-0.8-14.7,3.3-18.5c0.3-0.3,3.6,3.1,3.6,3.1c-3,2.1-4.9,10.3-2.4,13.8
			C277.8,229.7,273.5,231.7,273.4,231.4z"/>
		<path class="st3" d="M264.9,231c-1.4-2.9-1.8-6.8-1-11c0.7-3.8,2.4-7.2,4.5-9.3c0.5-0.5,6.1,1.2,6.1,1.2l-1.9,1.3
			c-1.8,1.2-3.3,4.2-4,7.7c-0.7,3.6-0.3,6.9,1.1,8.9l0.9,1.2C270.5,231.1,265.1,231.5,264.9,231z"/>
		<path class="st3" d="M266.3,210.8l-1.9,1.3c-1.4,1-2.9,4-3.5,7.4c-0.7,3.5-0.4,6.8,0.8,8.4l1.3,1.9c0,0-6.7-2.2-6.9-3.8
			c-0.5-2.9-0.1-5.9,0.2-7.4c0.5-2.7,1.4-5,2.5-6.9L266.3,210.8z"/>
		<path class="st4" d="M257.6,227.3c-1.1,2.5-4.6,3.1-5.7,3.1"/>
		<path class="st4" d="M265.3,230.6c0,2.7-3,4.7-3.9,5.1"/>
		<path class="st4" d="M267.1,230.4c0.9,2.6-1.3,5.4-2,6.1"/>
		<path class="st4" d="M256.5,226.4c-2.3,1.5-5.6,0.2-6.5-0.3"/>
		<path class="st4" d="M275,231.1c1.4,2.3,0.9,5.2-2.3,6.6"/>
		<path class="st4" d="M276.4,230.4c2.6,0.9,4,3.4,2.5,6.6"/>
		<path class="st5" d="M286.3,198.2c1.1,7.6-5.4,17.1-5.4,17.1s-8.8-7.4-9.9-15s1.8-12.1,6-12.7C281.3,187,285.2,190.5,286.3,198.2z
			"/>
		<path class="st5" d="M279.4,196.6c4.1,6.8,1.8,18.3,1.8,18.3s-11.2-3.4-15.3-10.2c-4.1-6.8-3.1-12.1,0.6-14.3
			C270.2,188.2,275.3,189.9,279.4,196.6z"/>
	</g>
</g>
</svg>
