<?xml version="1.0" encoding="utf-8"?>
<!-- Generator: Adobe Illustrator 23.0.0, SVG Export Plug-In . SVG Version: 6.00 Build 0)  -->
<svg version="1.1" id="Calque_1" xmlns="http://www.w3.org/2000/svg" xmlns:xlink="http://www.w3.org/1999/xlink" x="0px" y="0px"
	 viewBox="0 0 401.3 514.3" style="enable-background:new 0 0 401.3 514.3;" xml:space="preserve">
<style type="text/css">
	.st0{fill:#FEC04E;stroke:#000000;stroke-width:6.8781;stroke-linecap:round;stroke-linejoin:round;stroke-miterlimit:10;}
</style>
<g>
	<path class="st0" d="M380.2,312.3H21.1c-7.3,0-13.2-5.9-13.2-13.2v-22.3c0-7.3,5.9-13.2,13.2-13.2h359.2c7.3,0,13.2,5.9,13.2,13.2
		v22.3C393.5,306.4,387.5,312.3,380.2,312.3z"/>
	<path class="st0" d="M357,361.1H44.3c-8.1,0-14.7-6.6-14.7-14.7V321c0-4.8,3.9-8.7,8.7-8.7H363c4.8,0,8.7,3.9,8.7,8.7v25.4
		C371.7,354.5,365.1,361.1,357,361.1z"/>
	<path class="st0" d="M322.6,409.8h-244c-11.8,0-21.3-9.6-21.3-21.3v-20.4c0-3.9,3.1-7,7-7H337c3.9,0,7,3.1,7,7v20.4
		C344,400.3,334.4,409.8,322.6,409.8z"/>
	<path class="st0" d="M298.2,458.6H103.1c-11.4,0-20.7-9.3-20.7-20.7v-20.4c0-4.2,3.4-7.6,7.6-7.6h221.2c4.2,0,7.6,3.4,7.6,7.6v20.4
		C318.9,449.3,309.6,458.6,298.2,458.6z"/>
	<path class="st0" d="M252.2,507.3H149.1c-12.7,0-22.9-10.3-22.9-22.9V464c0-3,2.4-5.4,5.4-5.4h138.1c3,0,5.4,2.4,5.4,5.4v20.4
		C275.1,497,264.8,507.3,252.2,507.3z"/>
	<path class="st0" d="M44.3,214.8H357c8.1,0,14.7,6.6,14.7,14.7v25.4c0,4.8-3.9,8.7-8.7,8.7H38.3c-4.8,0-8.7-3.9-8.7-8.7v-25.4
		C29.6,221.4,36.2,214.8,44.3,214.8z"/>
	<path class="st0" d="M78.7,166.1h244c11.8,0,21.3,9.6,21.3,21.3v20.4c0,3.9-3.1,7-7,7H64.3c-3.9,0-7-3.1-7-7v-20.4
		C57.3,175.7,66.9,166.1,78.7,166.1z"/>
	<path class="st0" d="M103.1,117.4h195.1c11.4,0,20.7,9.3,20.7,20.7v20.4c0,4.2-3.4,7.6-7.6,7.6H90c-4.2,0-7.6-3.4-7.6-7.6v-20.4
		C82.4,126.6,91.7,117.4,103.1,117.4z"/>
	<ellipse cx="236.7" cy="336.7" rx="44" ry="57.1"/>
	<line class="st0" x1="201.7" y1="114" x2="201.7" y2="7"/>
</g>
</svg>
