<?xml version="1.0" encoding="utf-8"?>
<!-- Generator: Adobe Illustrator 23.0.0, SVG Export Plug-In . SVG Version: 6.00 Build 0)  -->
<svg version="1.1" id="Calque_1" xmlns="http://www.w3.org/2000/svg" xmlns:xlink="http://www.w3.org/1999/xlink" x="0px" y="0px"
	 viewBox="0 0 343.5 561.4" style="enable-background:new 0 0 343.5 561.4;" xml:space="preserve">
<style type="text/css">
	.st0{fill:#FEC04E;stroke:#000000;stroke-width:4.3637;stroke-linecap:round;stroke-linejoin:round;stroke-miterlimit:10;}
	.st1{fill:none;stroke:#000000;stroke-width:4.3637;stroke-linecap:round;stroke-linejoin:round;stroke-miterlimit:10;}
	.st2{fill:#F8D51C;stroke:#1D1D1B;stroke-width:1.0867;stroke-miterlimit:10;}
	.st3{fill:#1D1D1B;}
	.st4{fill:none;stroke:#1D1D1B;stroke-width:1.0867;stroke-linecap:round;stroke-linejoin:round;stroke-miterlimit:10;}
	.st5{fill:#ECECEC;stroke:#1D1D1B;stroke-width:1.0867;stroke-linecap:round;stroke-linejoin:round;stroke-miterlimit:10;}
	.st6{fill:#F8D51C;stroke:#1D1D1B;stroke-width:1.5666;stroke-miterlimit:10;}
	.st7{fill:none;stroke:#1D1D1B;stroke-width:1.5666;stroke-linecap:round;stroke-linejoin:round;stroke-miterlimit:10;}
	.st8{fill:#ECECEC;stroke:#1D1D1B;stroke-width:1.5666;stroke-linecap:round;stroke-linejoin:round;stroke-miterlimit:10;}
	.st9{fill:#F2D91A;stroke:#000000;stroke-width:1.5783;stroke-miterlimit:10;}
	.st10{fill:none;stroke:#000000;stroke-width:1.5783;stroke-linecap:round;stroke-linejoin:round;stroke-miterlimit:10;}
	.st11{fill:#E5E5E5;stroke:#000000;stroke-width:1.5783;stroke-linecap:round;stroke-linejoin:round;stroke-miterlimit:10;}
	.st12{fill:#FEA621;stroke:#000000;stroke-width:0.5483;stroke-miterlimit:10;}
	.st13{fill:#F2D91A;stroke:#000000;stroke-width:1.6697;stroke-miterlimit:10;}
	.st14{fill:none;stroke:#000000;stroke-width:1.6697;stroke-linecap:round;stroke-linejoin:round;stroke-miterlimit:10;}
	.st15{fill:#E5E5E5;stroke:#000000;stroke-width:1.6697;stroke-linecap:round;stroke-linejoin:round;stroke-miterlimit:10;}
	.st16{fill:#FEA621;stroke:#000000;stroke-width:0.5801;stroke-miterlimit:10;}
</style>
<g>
	<path class="st0" d="M201.9,345h-316.5c-6.4,0-11.5-5.1-11.5-11.5v-19.8c0-6.4,5.1-11.5,11.5-11.5h316.5c6.4,0,11.5,5.1,11.5,11.5
		v19.8C213.4,339.9,208.2,345,201.9,345z"/>
	<path class="st0" d="M181.4,388H-94.3c-7.1,0-12.8-5.8-12.8-12.8v-22.5c0-4.2,3.4-7.6,7.6-7.6h286c4.2,0,7.6,3.4,7.6,7.6v22.5
		C194.2,382.2,188.5,388,181.4,388z"/>
	<path class="st0" d="M151.2,430.9H-64c-10.3,0-18.6-8.4-18.6-18.6v-18.2c0-3.4,2.7-6.1,6.1-6.1h240.2c3.4,0,6.1,2.7,6.1,6.1v18.2
		C169.8,422.5,161.5,430.9,151.2,430.9z"/>
	<path class="st0" d="M129.7,473.9H-42.5c-9.9,0-18.1-8.1-18.1-18.1v-18.2c0-3.7,3-6.6,6.6-6.6h195c3.7,0,6.6,3,6.6,6.6v18.2
		C147.8,465.7,139.6,473.9,129.7,473.9z"/>
	<path class="st0" d="M89.2,516.8H-2c-11.1,0-20-9-20-20v-18.2c0-2.6,2.1-4.7,4.7-4.7h121.7c2.6,0,4.7,2.1,4.7,4.7v18.2
		C109.2,507.8,100.2,516.8,89.2,516.8z"/>
	<path class="st0" d="M-94.3,259.3h275.6c7.1,0,12.8,5.8,12.8,12.8v22.5c0,4.2-3.4,7.6-7.6,7.6h-286c-4.2,0-7.6-3.4-7.6-7.6v-22.5
		C-107,264.9-101.3,259.3-94.3,259.3z"/>
	<path class="st0" d="M-64,216.3h215.1c10.3,0,18.6,8.4,18.6,18.6v18.2c0,3.4-2.7,6.1-6.1,6.1H-76.5c-3.4,0-6.1-2.7-6.1-6.1V235
		C-82.6,224.6-74.3,216.3-64,216.3z"/>
	<path class="st0" d="M-42.5,173.4h172.2c9.9,0,18.1,8.1,18.1,18.1v18.2c0,3.7-3,6.6-6.6,6.6h-195c-3.7,0-6.6-3-6.6-6.6v-18.2
		C-60.6,181.5-52.5,173.4-42.5,173.4z"/>
	<ellipse cx="75.3" cy="366.5" rx="38.7" ry="50.4"/>
	<line class="st1" x1="44.5" y1="170.4" x2="44.5" y2="-1.1"/>
</g>
<g>
	<path class="st2" d="M206.98,202.23c-1.62,1.42-5.06,3.03-6.52,1.42s-1.26-4.1,0.4-5.56c1.67-1.47,3.74-0.96,5.21,0.71
		S208.64,200.81,206.98,202.23z"/>
	<circle class="st3" cx="203.54" cy="200" r="1.16"/>
	<path class="st4" d="M205.31,197.58c1.77-2.58,2.58-3.54,5.71-2.33"/>
	<path class="st4" d="M204.65,197.37c0.56-3.08,0.86-4.3,4.2-4.5"/>
	<path class="st2" d="M199.59,201.77c0.51,2.93-2.58,5.66-6.93,6.42c-4.3,0.76-8.39-0.91-9.76-3.49c0.4-3.13,3.69-5.86,7.99-6.62
		C195.2,197.32,199.09,198.84,199.59,201.77z"/>
	<path class="st3" d="M195.65,207.23c-2.33-2.12-2.93-6.83-1.62-9.35c0.1-0.2,2.22,0.86,2.22,0.86c-1.06,1.52-0.56,5.71,1.21,6.98
		C197.52,205.72,195.8,207.38,195.65,207.23z"/>
	<path class="st3" d="M191.56,208.55c-1.16-1.16-2.02-2.93-2.38-5.06c-0.3-1.97-0.1-3.84,0.51-5.21c0.15-0.3,3.08-0.46,3.08-0.46
		l-0.66,0.96c-0.61,0.91-0.86,2.58-0.56,4.35c0.3,1.82,1.06,3.34,2.07,4.04l0.61,0.46C194.24,207.59,191.81,208.75,191.56,208.55z"
		/>
	<path class="st3" d="M188.72,198.74l-0.66,0.96c-0.51,0.71-0.66,2.43-0.4,4.1c0.3,1.77,1.01,3.29,1.82,3.84l0.96,0.66
		c0,0-3.54,0.1-3.94-0.61c-0.76-1.31-1.06-2.78-1.16-3.54c-0.2-1.37-0.2-2.63,0-3.74L188.72,198.74z"/>
	<path class="st4" d="M187.46,208.04c-0.1,1.37-1.67,2.28-2.17,2.43"/>
	<path class="st4" d="M191.71,208.24c0.46,1.31-0.61,2.78-0.96,3.13"/>
	<path class="st4" d="M192.57,207.89c0.86,1.06,0.35,2.78,0.1,3.29"/>
	<path class="st4" d="M186.8,207.84c-0.81,1.11-2.63,1.06-3.13,0.96"/>
	<path class="st4" d="M196.41,206.88c1.06,0.86,1.31,2.33,0.05,3.54"/>
	<path class="st4" d="M196.97,206.27c1.37-0.05,2.48,0.96,2.33,2.68"/>
	<path class="st5" d="M196.06,189.23c1.82,3.44,0.4,9.05,0.4,9.05s-5.46-1.97-7.28-5.41c-1.82-3.44-1.21-6.07,0.66-7.08
		C191.76,184.84,194.24,185.8,196.06,189.23z"/>
	<path class="st5" d="M192.52,189.69c3.08,2.53,3.99,8.39,3.99,8.39s-5.92,0.3-9-2.17c-3.08-2.53-3.59-5.21-2.17-6.93
		C186.75,187.26,189.43,187.21,192.52,189.69z"/>
</g>
<g>
	<path class="st6" d="M178.46,510.21c-1.38,2.77-5.1,6.85-7.87,5.47s-3.94-4.81-2.55-7.58c1.38-2.77,4.52-3.35,7.29-1.89
		C178.1,507.52,179.85,507.44,178.46,510.21z"/>
	<circle class="st3" cx="172.63" cy="509.19" r="1.68"/>
	<path class="st7" d="M173.58,504.97c0.95-4.37,1.46-6.12,6.34-6.2"/>
	<path class="st7" d="M172.63,505.11c-0.95-4.37-1.24-6.2,3.13-8.31"/>
	<path class="st6" d="M168.33,513.71c2.26,3.57-0.36,8.96-5.68,12.32c-5.32,3.35-11.66,3.35-14.94,0.73
		c-1.17-4.45,1.68-9.84,7-13.19C160.02,510.21,166,510.14,168.33,513.71z"/>
	<path class="st3" d="M166.07,523.19c-4.3-1.6-7.65-7.51-7.36-11.59c0-0.29,3.43-0.07,3.43-0.07c-0.58,2.62,2.41,7.94,5.47,8.6
		C167.67,520.13,166.36,523.26,166.07,523.19z"/>
	<path class="st3" d="M161.33,527.12c-2.19-0.87-4.3-2.77-5.9-5.39c-1.46-2.41-2.26-5.03-2.19-7.22c0-0.51,3.86-2.33,3.86-2.33
		l-0.36,1.68c-0.36,1.53,0.29,3.94,1.6,6.05c1.38,2.26,3.21,3.86,4.96,4.23l1.09,0.22C164.39,524.43,161.77,527.34,161.33,527.12z"
		/>
	<path class="st3" d="M152.22,515.61l-0.36,1.68c-0.29,1.24,0.44,3.57,1.75,5.68c1.38,2.19,3.13,3.86,4.52,4.15l1.68,0.36
		c0,0-4.66,2.11-5.61,1.31c-1.68-1.38-2.92-3.13-3.5-4.08c-1.02-1.68-1.75-3.43-2.04-4.96L152.22,515.61z"/>
	<path class="st7" d="M155.58,528.73c0.58,1.9-0.95,3.94-1.53,4.45"/>
	<path class="st7" d="M161.41,526.69c1.31,1.46,0.73,4.01,0.44,4.66"/>
	<path class="st7" d="M162.28,525.74c1.75,0.95,1.97,3.57,1.89,4.3"/>
	<path class="st7" d="M154.63,528.8c-0.44,1.97-2.92,2.84-3.64,2.99"/>
	<path class="st7" d="M166.87,522.24c1.89,0.51,2.99,2.33,2.04,4.66"/>
	<path class="st7" d="M167.31,521.15c1.82-0.8,3.79-0.07,4.52,2.33"/>
	<path class="st8" d="M156.74,498.92c4.3,3.57,5.54,11.88,5.54,11.88s-8.38,0.36-12.68-3.21c-4.3-3.57-4.96-7.36-2.99-9.77
		C148.58,495.42,152.44,495.35,156.74,498.92z"/>
	<path class="st8" d="M152.3,501.54c5.54,1.68,9.91,8.96,9.91,8.96s-7.73,3.72-13.19,2.04c-5.54-1.68-7.65-4.96-6.71-8.02
		C143.19,501.47,146.76,499.86,152.3,501.54z"/>
</g>
<g>
	<g>
		<path class="st9" d="M210.92,418.64c1.99,3.03,6.79,7.17,9.82,5.18c3.03-1.99,3.88-6.05,1.89-9.08c-1.99-3.03-5.62-3.22-8.65-1.23
			C210.95,415.5,208.94,415.61,210.92,418.64z"/>
		<circle cx="217.43" cy="416.64" r="1.9"/>
		<path class="st10" d="M215.76,411.94c-1.72-4.92-2.55-6.85-8.16-6.29"/>
		<path class="st10" d="M216.86,411.94c0.51-5.18,0.58-7.28-4.75-9.14"/>
		<path class="st9" d="M223.03,421.26c-2.14,4.45,1.62,10.26,8.19,13.42s13.89,2.31,17.25-1.18c0.74-5.27-3.28-11.06-9.85-14.22
			S225.17,416.82,223.03,421.26z"/>
		<path d="M226.84,431.85c4.73-2.39,7.77-9.68,6.86-14.32c-0.06-0.33-3.98,0.36-3.98,0.36c1.02,2.92-1.72,9.44-5.11,10.63
			C224.61,428.52,226.54,432,226.84,431.85z"/>
		<path d="M232.84,435.76c2.41-1.31,4.57-3.8,6.05-7.02c1.38-2.99,1.92-6.08,1.55-8.59c-0.08-0.56-4.76-2.13-4.76-2.13l0.65,1.86
			c0.6,1.72,0.2,4.55-1.03,7.21c-1.29,2.8-3.2,4.88-5.12,5.55l-1.21,0.42C228.98,433.06,232.4,436,232.84,435.76z"/>
		<path d="M241.81,421.27l0.65,1.86c0.49,1.4,0,4.2-1.2,6.79c-1.26,2.73-3.09,4.84-4.66,5.39l-1.86,0.65c0,0,5.65,1.76,6.62,0.78
			c1.77-1.78,2.94-4.01,3.48-5.17c0.96-2.07,1.53-4.13,1.7-5.97L241.81,421.27z"/>
		<path class="st10" d="M239.66,436.81c-0.45,2.26,1.65,4.41,2.38,4.9"/>
		<path class="st10" d="M232.73,435.23c-1.34,1.88-0.31,4.7,0.16,5.45"/>
		<path class="st10" d="M231.58,434.26c-1.88,1.34-1.82,4.34-1.62,5.21"/>
		<path class="st10" d="M240.8,436.75c0.8,2.16,3.71,2.91,4.59,2.94"/>
		<path class="st10" d="M225.86,430.89c-2.13,0.89-3.13,3.12-1.68,5.68"/>
		<path class="st10" d="M225.21,429.65c-2.2-0.68-4.4,0.4-4.92,3.3"/>
		<path class="st11" d="M234.31,402.72c-4.49,4.71-4.73,14.38-4.73,14.38s9.65-0.7,14.14-5.41c4.49-4.71,4.71-9.16,2.11-11.64
			C243.23,397.57,238.8,398.01,234.31,402.72z"/>
		<path class="st11" d="M239.81,405.08c-6.11,2.64-10.2,11.65-10.2,11.65s9.37,3.2,15.47,0.56c6.11-2.64,8.1-6.74,6.64-10.11
			C250.27,403.81,245.92,402.45,239.81,405.08z"/>
	</g>
	<circle class="st12" cx="243.48" cy="438.83" r="1.49"/>
	<circle class="st12" cx="240.37" cy="440.25" r="1.49"/>
	<circle class="st12" cx="232.53" cy="438.23" r="1.49"/>
	<circle class="st12" cx="229.61" cy="437.11" r="1.49"/>
	<circle class="st12" cx="223.39" cy="434.56" r="1.49"/>
	<circle class="st12" cx="221.31" cy="430.44" r="1.49"/>
</g>
<g>
	<g>
		<path class="st13" d="M245.31,285.3c3.61,1.3,10.3,1.75,11.59-1.86c1.29-3.61-0.59-7.58-4.19-8.89c-3.61-1.3-6.79,0.85-8.08,4.45
			C243.33,282.61,241.7,283.99,245.31,285.3z"/>
		<ellipse transform="matrix(0.7987 -0.6017 0.6017 0.7987 -117.9322 206.4032)" cx="249.53" cy="279.46" rx="2.01" ry="2.01"/>
		<path class="st14" d="M245.12,276.55c-4.59-3.07-6.51-4.18-10.89-0.14"/>
		<path class="st14" d="M246.04,275.85c-2.87-4.71-4.16-6.53-9.84-4.72"/>
		<path class="st13" d="M257.19,279.82c1.03,5.12,7.91,7.65,15.47,6.15s13.18-6.87,13.8-11.96c-2.74-4.93-9.81-7.27-17.37-5.78
			C261.54,269.73,256.16,274.69,257.19,279.82z"/>
		<path d="M267.16,286.35c2.47-5.02,0.38-13.13-3.34-16.48c-0.26-0.24-3.13,2.83-3.13,2.83c2.72,1.82,4.57,9.08,2.46,12.24
			C263.15,284.96,267,286.67,267.16,286.35z"/>
		<path d="M274.71,285.85c1.2-2.64,1.43-6.12,0.63-9.79c-0.75-3.41-2.26-6.36-4.17-8.25c-0.42-0.42-5.37,1.22-5.37,1.22l1.74,1.16
			c1.6,1.07,3.07,3.72,3.73,6.76c0.7,3.19,0.41,6.16-0.78,7.95l-0.75,1.13C269.73,286.02,274.49,286.33,274.71,285.85z"/>
		<path d="M273.04,267.89l1.74,1.16c1.31,0.88,2.67,3.55,3.32,6.51c0.67,3.11,0.48,6.06-0.49,7.53l-1.16,1.74
			c0,0,5.89-2.1,6.09-3.54c0.36-2.64-0.07-5.26-0.36-6.59c-0.51-2.36-1.34-4.47-2.37-6.14L273.04,267.89z"/>
		<path class="st14" d="M281.14,282.41c1.06,2.2,4.2,2.69,5.14,2.64"/>
		<path class="st14" d="M274.29,285.48c0.07,2.44,2.74,4.17,3.61,4.51"/>
		<path class="st14" d="M272.7,285.39c-0.73,2.33,1.24,4.83,1.95,5.44"/>
		<path class="st14" d="M282.06,281.63c2.05,1.33,4.98,0.1,5.75-0.43"/>
		<path class="st14" d="M265.72,286.17c-1.23,2.1-0.66,4.63,2.2,5.87"/>
		<path class="st14" d="M264.38,285.53c-2.29,0.83-3.46,3.14-2.04,5.92"/>
		<path class="st15" d="M254.89,256.95c-0.78,6.84,5.18,15.18,5.18,15.18s7.69-6.73,8.48-13.57c0.78-6.84-1.87-10.75-5.64-11.19
			C259.13,246.93,255.67,250.12,254.89,256.95z"/>
		<path class="st15" d="M261.04,255.46c-3.47,6.11-1.18,16.34-1.18,16.34s9.94-3.25,13.41-9.36c3.47-6.11,2.53-10.85-0.84-12.78
			C269.05,247.73,264.51,249.34,261.04,255.46z"/>
	</g>
	
		<ellipse transform="matrix(0.7987 -0.6017 0.6017 0.7987 -111.9963 228.5863)" class="st16" cx="285.65" cy="281.68" rx="1.57" ry="1.58"/>
	
		<ellipse transform="matrix(0.7987 -0.6017 0.6017 0.7987 -114.2569 228.1929)" class="st16" cx="283.93" cy="284.87" rx="1.57" ry="1.58"/>
	
		<ellipse transform="matrix(0.7987 -0.6017 0.6017 0.7987 -117.8161 224.0947)" class="st16" cx="276.03" cy="288.14" rx="1.57" ry="1.58"/>
	
		<ellipse transform="matrix(0.7987 -0.6017 0.6017 0.7987 -119.0042 222.3669)" class="st16" cx="272.85" cy="289.05" rx="1.57" ry="1.58"/>
	
		<ellipse transform="matrix(0.7987 -0.6017 0.6017 0.7987 -121.4685 218.5914)" class="st16" cx="265.98" cy="290.84" rx="1.57" ry="1.58"/>
	
		<ellipse transform="matrix(0.7987 -0.6017 0.6017 0.7987 -121.0481 215.5179)" class="st16" cx="261.59" cy="288.68" rx="1.57" ry="1.58"/>
</g>
<g>
	<g>
		<path class="st13" d="M121.24,346.6c3.7,0.99,10.41,0.87,11.39-2.83s-1.22-7.51-4.93-8.5c-3.7-0.99-6.69,1.42-7.68,5.12
			C119.04,344.09,117.53,345.6,121.24,346.6z"/>
		<ellipse transform="matrix(0.7452 -0.6669 0.6669 0.7452 -195.1872 170.0836)" cx="124.95" cy="340.43" rx="2.01" ry="2.01"/>
		<path class="st14" d="M120.31,337.89c-4.83-2.67-6.84-3.61-10.87,0.78"/>
		<path class="st14" d="M121.17,337.12c-3.26-4.45-4.69-6.16-10.2-3.88"/>
		<path class="st13" d="M132.62,340.14c1.46,5.02,8.53,6.96,15.93,4.83c7.4-2.13,12.56-7.96,12.75-13.08
			c-3.14-4.68-10.39-6.42-17.8-4.29C136.1,329.72,131.16,335.12,132.62,340.14z"/>
		<path d="M143.1,345.81c2.03-5.21-0.73-13.11-4.72-16.14c-0.28-0.21-2.88,3.09-2.88,3.09c2.87,1.59,5.32,8.66,3.48,11.99
			C138.99,344.75,142.97,346.14,143.1,345.81z"/>
		<path d="M150.58,344.67c0.97-2.74,0.91-6.22-0.2-9.81c-1.03-3.33-2.79-6.15-4.85-7.87c-0.46-0.38-5.25,1.67-5.25,1.67l1.83,1.01
			c1.69,0.93,3.37,3.45,4.29,6.42c0.97,3.12,0.93,6.11-0.11,7.98l-0.65,1.19C145.64,345.26,150.4,345.17,150.58,344.67z"/>
		<path d="M147.4,326.92l1.83,1.01c1.38,0.76,2.96,3.31,3.85,6.21c0.93,3.04,0.99,6,0.14,7.54l-1,1.83c0,0,5.69-2.59,5.77-4.04
			c0.14-2.66-0.51-5.24-0.91-6.54c-0.71-2.31-1.71-4.34-2.88-5.91L147.4,326.92z"/>
		<path class="st14" d="M156.7,340.7c1.24,2.1,4.42,2.32,5.34,2.19"/>
		<path class="st14" d="M150.13,344.34c0.27,2.42,3.08,3.93,3.98,4.19"/>
		<path class="st14" d="M148.54,344.38c-0.53,2.38,1.64,4.71,2.4,5.25"/>
		<path class="st14" d="M157.55,339.85c2.16,1.15,4.97-0.32,5.69-0.91"/>
		<path class="st14" d="M141.65,345.74c-1.05,2.2-0.26,4.67,2.69,5.67"/>
		<path class="st14" d="M140.26,345.22c-2.21,1.02-3.18,3.42-1.54,6.07"/>
		<path class="st15" d="M128.39,317.55c-0.2,6.88,6.44,14.69,6.44,14.69s7.1-7.35,7.3-14.23c0.2-6.88-2.77-10.55-6.56-10.68
			C131.78,307.2,128.6,310.67,128.39,317.55z"/>
		<path class="st15" d="M134.4,315.54c-2.94,6.38,0.2,16.38,0.2,16.38s9.63-4.07,12.57-10.46s1.61-11.02-1.92-12.66
			C141.73,307.17,137.34,309.16,134.4,315.54z"/>
	</g>
	
		<ellipse transform="matrix(0.7452 -0.6669 0.6669 0.7452 -185.4116 194.0007)" class="st16" cx="161.13" cy="339.6" rx="1.57" ry="1.58"/>
	
		<ellipse transform="matrix(0.7452 -0.6669 0.6669 0.7452 -187.9907 193.8826)" class="st16" cx="159.69" cy="342.91" rx="1.57" ry="1.58"/>
	
		<ellipse transform="matrix(0.7452 -0.6669 0.6669 0.7452 -192.5453 189.8138)" class="st16" cx="152.09" cy="346.84" rx="1.57" ry="1.58"/>
	
		<ellipse transform="matrix(0.7452 -0.6669 0.6669 0.7452 -194.1167 188.054)" class="st16" cx="149" cy="348.02" rx="1.57" ry="1.58"/>
	
		<ellipse transform="matrix(0.7452 -0.6669 0.6669 0.7452 -197.4035 184.1898)" class="st16" cx="142.3" cy="350.38" rx="1.57" ry="1.58"/>
	
		<ellipse transform="matrix(0.7452 -0.6669 0.6669 0.7452 -197.3707 180.6997)" class="st16" cx="137.75" cy="348.6" rx="1.57" ry="1.58"/>
</g>
</svg>
